<?xml version="1.0" encoding="UTF-8"?>
<svg version="1.1" xmlns="http://www.w3.org/2000/svg" width="500" height="500">
<path d="M0 0 C165 0 330 0 500 0 C500 165 500 330 500 500 C335 500 170 500 0 500 C0 335 0 170 0 0 Z " fill="#FEFEFE" transform="translate(0,0)"/>
<path d="M0 0 C1 1 1 1 1.11352539 4.05102539 C1.11336634 5.39991271 1.10767612 6.74880614 1.09765625 8.09765625 C1.0962413 8.80651474 1.09482635 9.51537323 1.09336853 10.24571228 C1.08775443 12.51801712 1.07519963 14.79022475 1.0625 17.0625 C1.05748681 18.59960796 1.05292359 20.13671745 1.04882812 21.67382812 C1.03778042 25.44925642 1.02050641 29.22461171 1 33 C-0.00861084 33.05160278 -0.00861084 33.05160278 -1.03759766 33.10424805 C-25.72763292 33.90455248 -25.72763292 33.90455248 -49.08056641 41.07617188 C-51 42 -51 42 -54 42 C-54 57.51 -54 73.02 -54 89 C-65.22 89 -76.44 89 -88 89 C-88 64.32704534 -81.52978344 40.57908969 -63.83203125 22.76953125 C-62.89746094 21.85558594 -61.96289062 20.94164062 -61 20 C-60.16855469 19.12730469 -59.33710938 18.25460938 -58.48046875 17.35546875 C-43.33072951 2.96918093 -20.12697708 -1.22985054 0 0 Z " fill="#AFDF60" transform="translate(321,215)"/>
<path d="M0 0 C11.22 0 22.44 0 34 0 C34 6.6 34 13.2 34 20 C33.34 20 32.68 20 32 20 C31.76925781 21.01578125 31.53851563 22.0315625 31.30078125 23.078125 C28.58924399 34.66931062 25.30039913 45.2756768 18.33984375 55.10546875 C16.88667177 57.09414 16.88667177 57.09414 15.4375 59.75 C6.41385656 73.87396364 -12.93258723 82.97692649 -28.7890625 86.94921875 C-30.05492187 87.19285156 -31.32078125 87.43648438 -32.625 87.6875 C-33.87539062 87.93886719 -35.12578125 88.19023437 -36.4140625 88.44921875 C-42.56787071 89.18830474 -48.80196776 89 -55 89 C-55 78.11 -55 67.22 -55 56 C-50.38 55.5875 -45.76 55.175 -41 54.75 C-26.82194522 53.39215337 -14.39731167 51.02399187 -1 46 C-0.67 30.82 -0.34 15.64 0 0 Z " fill="#ABDE60" transform="translate(233,170)"/>
<path d="M0 0 C10.89 0 21.78 0 33 0 C33 15.3865963 28.46596684 24.3203783 18.125 35.1875 C12.55664724 40.59645335 7.37261363 43.54246212 0 46 C0 30.82 0 15.64 0 0 Z " fill="#067E39" transform="translate(233,170)"/>
<path d="M0 0 C0 14.52 0 29.04 0 44 C-10.56 44 -21.12 44 -32 44 C-32 30.45964463 -29.7599122 22.99318715 -20.40234375 13.32421875 C-6.6302521 0 -6.6302521 0 0 0 Z " fill="#017F36" transform="translate(266,259)"/>
<path d="M0 0 C2.45840605 -0.02691685 4.91651882 -0.04679802 7.375 -0.0625 C8.07367188 -0.07087891 8.77234375 -0.07925781 9.4921875 -0.08789062 C14.7734375 -0.11328125 14.7734375 -0.11328125 17 1 C16.67 2.65 16.34 4.3 16 6 C16.66 6.33 17.32 6.66 18 7 C18 6.34 18 5.68 18 5 C18.66 5 19.32 5 20 5 C20.33 4.01 20.66 3.02 21 2 C33.54054054 0.27027027 33.54054054 0.27027027 37 2 C37.625 4.5625 37.625 4.5625 38 7 C37.32453125 6.88140625 36.6490625 6.7628125 35.953125 6.640625 C30.42931703 5.73063017 30.42931703 5.73063017 25.3125 7.5 C23.46254012 11.0237331 24.01880071 13.21537417 25 17 C26.83737827 19.27216848 26.83737827 19.27216848 29.6015625 19.1953125 C30.59929687 19.17210937 31.59703125 19.14890625 32.625 19.125 C33.62789063 19.10695313 34.63078125 19.08890625 35.6640625 19.0703125 C36.43492187 19.04710937 37.20578125 19.02390625 38 19 C37 22 37 22 35 23 C29.6174388 23.27368955 25.05570357 23.1233955 20 21 C18.5625 18.375 18.5625 18.375 18 16 C17.34 16 16.68 16 16 16 C16 18.31 16 20.62 16 23 C-8.54754441 24.90963924 -8.54754441 24.90963924 -13.66015625 20.65625 C-15.87184465 17.85010111 -17.5019456 15.23486122 -19 12 C-19.66 11.01 -20.32 10.02 -21 9 C-21.33 13.62 -21.66 18.24 -22 23 C-22.66 23 -23.32 23 -24 23 C-24 16.4 -24 9.8 -24 3 C-19.73312192 5.13343904 -18.16610234 6.93698822 -15.25 10.625 C-14.45078125 11.62789063 -13.6515625 12.63078125 -12.828125 13.6640625 C-11.92320312 14.82035156 -11.92320312 14.82035156 -11 16 C-10.67 11.71 -10.34 7.42 -10 3 C-8.68 3 -7.36 3 -6 3 C-5.71125 3.639375 -5.4225 4.27875 -5.125 4.9375 C-4.17176549 7.15206079 -4.17176549 7.15206079 -2 8 C-1.34 5.36 -0.68 2.72 0 0 Z " fill="#EAFBF3" transform="translate(338,320)"/>
<path d="M0 0 C0.33 0 0.66 0 1 0 C1 6.6 1 13.2 1 20 C0.34 20 -0.32 20 -1 20 C-1.23074219 21.01578125 -1.46148437 22.0315625 -1.69921875 23.078125 C-4.41075601 34.66931062 -7.69960087 45.2756768 -14.66015625 55.10546875 C-16.11332823 57.09414 -16.11332823 57.09414 -17.5625 59.75 C-26.58614344 73.87396364 -45.93258723 82.97692649 -61.7890625 86.94921875 C-63.05492187 87.19285156 -64.32078125 87.43648438 -65.625 87.6875 C-66.87539062 87.93886719 -68.12578125 88.19023437 -69.4140625 88.44921875 C-75.56787071 89.18830474 -81.80196776 89 -88 89 C-88 78.11 -88 67.22 -88 56 C-83.38 55.5875 -78.76 55.175 -74 54.75 C-59.96507983 53.40586151 -47.1817055 51.16929627 -34 46 C-33.01 46 -32.02 46 -31 46 C-31.5078125 47.83203125 -31.5078125 47.83203125 -33 50 C-35.67083554 51.10836687 -38.10431253 51.94193645 -40.875 52.6875 C-41.64005859 52.90462646 -42.40511719 53.12175293 -43.19335938 53.34545898 C-48.59364858 54.80813162 -53.75177996 55.43792409 -59.34375 55.69140625 C-62.96849729 56.1125166 -65.8408981 57.4028869 -69.0625 59.0625 C-71.05787053 60.02800187 -72.81434438 60.63421879 -75 61 C-77.25 60.0625 -77.25 60.0625 -79 59 C-81.08022974 60.11599347 -81.08022974 60.11599347 -83 62 C-83.64249463 64.69732889 -83.64249463 64.69732889 -83.609375 67.76171875 C-83.64160156 68.87998047 -83.67382812 69.99824219 -83.70703125 71.15039062 C-83.72121094 72.31763672 -83.73539063 73.48488281 -83.75 74.6875 C-83.77964844 75.86634766 -83.80929688 77.04519531 -83.83984375 78.25976562 C-83.91061656 81.17324632 -83.96327725 84.08592336 -84 87 C-83.37818848 86.86287598 -82.75637695 86.72575195 -82.11572266 86.58447266 C-76.51464321 85.39887369 -71.09021939 84.63527565 -65.375 84.375 C-64.65699219 84.33632812 -63.93898437 84.29765625 -63.19921875 84.2578125 C-61.46647905 84.16539972 -59.73327701 84.08171777 -58 84 C-58 83.34 -58 82.68 -58 82 C-57.22914063 81.80664062 -56.45828125 81.61328125 -55.6640625 81.4140625 C-54.66117188 81.15367187 -53.65828125 80.89328125 -52.625 80.625 C-51.62726563 80.36976563 -50.62953125 80.11453125 -49.6015625 79.8515625 C-46.87458985 79.17595681 -46.87458985 79.17595681 -45 77 C-44.01 77 -43.02 77 -42 77 C-41.505 75.515 -41.505 75.515 -41 74 C-39.01679982 72.96708324 -37.01652194 71.9662501 -35 71 C-34.67 70.34 -34.34 69.68 -34 69 C-33.01 69 -32.02 69 -31 69 C-31 68.01 -31 67.02 -31 66 C-28.525 65.01 -28.525 65.01 -26 64 C-26 63.34 -26 62.68 -26 62 C-25.34 62 -24.68 62 -24 62 C-24 61.34 -24 60.68 -24 60 C-22.125 57.875 -22.125 57.875 -20 56 C-19.34 56 -18.68 56 -18 56 C-17.71125 55.0925 -17.4225 54.185 -17.125 53.25 C-16.23468224 50.67797092 -15.28505587 48.38653234 -14 46 C-13.01 46 -12.02 46 -11 46 C-10.40127554 43.67853063 -9.86006324 41.35511069 -9.3515625 39.01171875 C-8.03683862 32.99650357 -6.56055395 27.58666315 -4 22 C-3.63557767 20.33985384 -3.30027117 18.67293936 -3 17 C-2.67 16.13375 -2.34 15.2675 -2 14.375 C-0.5977808 9.6425102 -0.33193267 4.90910944 0 0 Z " fill="#CCDB8D" transform="translate(266,170)"/>
<path d="M0 0 C0.66 0.33 1.32 0.66 2 1 C0.38731308 3.71224618 -1.24901874 6.37352812 -3 9 C-1.68 9 -0.36 9 1 9 C1.66 10.32 2.32 11.64 3 13 C4.11375 12.95875 5.2275 12.9175 6.375 12.875 C10 13 10 13 12 15 C12.24050903 16.98684692 12.24050903 16.98684692 12.22705078 19.44970703 C12.22689972 20.37051056 12.22674866 21.29131409 12.22659302 22.24002075 C12.21627045 23.23589203 12.20594788 24.23176331 12.1953125 25.2578125 C12.1924826 26.27600067 12.18965271 27.29418884 12.18673706 28.3432312 C12.1755177 31.603939 12.15040996 34.86437484 12.125 38.125 C12.11497247 40.33202729 12.10584623 42.53905888 12.09765625 44.74609375 C12.07727191 50.16425227 12.03812636 55.58182073 12 61 C0.78 61 -10.44 61 -22 61 C-22 57.37 -22 53.74 -22 50 C-21.67 50 -21.34 50 -21 50 C-21 53.3 -21 56.6 -21 60 C-10.44 60 0.12 60 11 60 C11 45.48 11 30.96 11 16 C2.41471272 20.29264364 -2.49539612 23.51794241 -9 30 C-9.58910156 30.56589844 -10.17820313 31.13179688 -10.78515625 31.71484375 C-15.49967329 36.64639738 -17.65460021 42.67987403 -20 49 C-20.33 49 -20.66 49 -21 49 C-20.1928532 26.96489225 -20.1928532 26.96489225 -13.98828125 21.09765625 C-12 20 -12 20 -10 20 C-9.88269531 19.278125 -9.76539063 18.55625 -9.64453125 17.8125 C-8.13357232 11.21922467 -4.50270166 5.00300184 0 0 Z " fill="#7DC665" transform="translate(255,243)"/>
<path d="M0 0 C1.74991334 -0.02715383 3.49994945 -0.04646551 5.25 -0.0625 C6.71179688 -0.07990234 6.71179688 -0.07990234 8.203125 -0.09765625 C10.65758678 -0.01195577 12.66168914 0.29293934 15 1 C15 2.32 15 3.64 15 5 C11.04 5 7.08 5 3 5 C3 7.31 3 9.62 3 12 C6.3 12 9.6 12 13 12 C13 12.66 13 13.32 13 14 C9.7 14 6.4 14 3 14 C3 16.31 3 18.62 3 21 C6.96 21 10.92 21 15 21 C15 21.66 15 22.32 15 23 C9.72 23 4.44 23 -1 23 C-1.34179688 18.06835938 -1.34179688 18.06835938 -1.68359375 13.13671875 C-1.8867371 9.97409042 -1.8867371 9.97409042 -3 7 C-3.12375 7.7425 -3.2475 8.485 -3.375 9.25 C-4 12 -4 12 -5 13.875 C-6.39234567 16.83373456 -6.62765961 19.77304997 -7 23 C-7.99 23 -8.98 23 -10 23 C-10 20.03 -10 17.06 -10 14 C-13.96 14 -17.92 14 -22 14 C-22 16.97 -22 19.94 -22 23 C-22.99 23 -23.98 23 -25 23 C-25 16.4 -25 9.8 -25 3 C-24.01 3 -23.02 3 -22 3 C-22 5.64 -22 8.28 -22 11 C-18.04 11 -14.08 11 -10 11 C-10 8.36 -10 5.72 -10 3 C-6.535 2.505 -6.535 2.505 -3 2 C-3 2.66 -3 3.32 -3 4 C-2.34 4 -1.68 4 -1 4 C-0.67 2.68 -0.34 1.36 0 0 Z " fill="#D8F1E5" transform="translate(131,320)"/>
<path d="M0 0 C0 2.97 0 5.94 0 9 C3.63 9 7.26 9 11 9 C11 6.36 11 3.72 11 1 C11.99 1 12.98 1 14 1 C14 7.6 14 14.2 14 21 C13.01 21 12.02 21 11 21 C11 18.03 11 15.06 11 12 C7.37 12 3.74 12 0 12 C0 15.3 0 18.6 0 22 C-1.65 22 -3.3 22 -5 22 C-6.12862175 16.63904667 -6.09688221 11.44693314 -6 6 C-8.64 6 -11.28 6 -14 6 C-14.33 10.95 -14.66 15.9 -15 21 C-15.99 21 -16.98 21 -18 21 C-18 15.06 -18 9.12 -18 3 C-20.31 3 -22.62 3 -25 3 C-25 2.01 -25 1.02 -25 0 C-22.33373641 -0.19693992 -19.66743361 -0.38274782 -17 -0.5625 C-16.25621094 -0.61857422 -15.51242188 -0.67464844 -14.74609375 -0.73242188 C-9.66997882 -1.06347285 -5.02988738 -0.77163045 0 0 Z " fill="#D4F4E5" transform="translate(217,322)"/>
<path d="M0 0 C2.82424288 2.19022918 4.41508603 3.83017207 6 7 C6.41204834 11.63554388 5.87454146 14.30416098 3 18 C-0.01002441 20.34113009 -3.27741542 20.41216607 -7.03125 20.328125 C-10.14316604 19.80947233 -11.85067869 18.21445226 -14 16 C-15.7473737 12.50525261 -15.55225821 8.81321144 -15 5 C-11.42426083 -0.84037397 -6.32873667 -1.33017782 0 0 Z " fill="#F6FCF9" transform="translate(276,323)"/>
<path d="M0 0 C0.33 0 0.66 0 1 0 C1 6.6 1 13.2 1 20 C0.34 20 -0.32 20 -1 20 C-1.23074219 21.01578125 -1.46148437 22.0315625 -1.69921875 23.078125 C-4.41075601 34.66931062 -7.69960087 45.2756768 -14.66015625 55.10546875 C-16.11332823 57.09414 -16.11332823 57.09414 -17.5625 59.75 C-25.51881438 72.20336165 -42.00926162 81.0612584 -56 85 C-58.375 84.625 -58.375 84.625 -60 84 C-59.34 84 -58.68 84 -58 84 C-58 83.34 -58 82.68 -58 82 C-57.22914063 81.80664062 -56.45828125 81.61328125 -55.6640625 81.4140625 C-54.66117188 81.15367187 -53.65828125 80.89328125 -52.625 80.625 C-51.62726563 80.36976563 -50.62953125 80.11453125 -49.6015625 79.8515625 C-46.87458985 79.17595681 -46.87458985 79.17595681 -45 77 C-44.01 77 -43.02 77 -42 77 C-41.505 75.515 -41.505 75.515 -41 74 C-39.01679982 72.96708324 -37.01652194 71.9662501 -35 71 C-34.67 70.34 -34.34 69.68 -34 69 C-33.01 69 -32.02 69 -31 69 C-31 68.01 -31 67.02 -31 66 C-28.525 65.01 -28.525 65.01 -26 64 C-26 63.34 -26 62.68 -26 62 C-25.34 62 -24.68 62 -24 62 C-24 61.34 -24 60.68 -24 60 C-22.125 57.875 -22.125 57.875 -20 56 C-19.34 56 -18.68 56 -18 56 C-17.566875 54.63875 -17.566875 54.63875 -17.125 53.25 C-16.23468224 50.67797092 -15.28505587 48.38653234 -14 46 C-13.01 46 -12.02 46 -11 46 C-10.40127554 43.67853063 -9.86006324 41.35511069 -9.3515625 39.01171875 C-8.03683862 32.99650357 -6.56055395 27.58666315 -4 22 C-3.63557767 20.33985384 -3.30027117 18.67293936 -3 17 C-2.67 16.13375 -2.34 15.2675 -2 14.375 C-0.5977808 9.6425102 -0.33193267 4.90910944 0 0 Z " fill="#9DD572" transform="translate(266,170)"/>
<path d="M0 0 C1 1 1 1 1.11352539 4.05102539 C1.11336634 5.39991271 1.10767612 6.74880614 1.09765625 8.09765625 C1.0962413 8.80651474 1.09482635 9.51537323 1.09336853 10.24571228 C1.08775443 12.51801712 1.07519963 14.79022475 1.0625 17.0625 C1.05748681 18.59960796 1.05292359 20.13671745 1.04882812 21.67382812 C1.0386297 25.44928667 1.01905732 29.22453404 1 33 C-4.94 33 -10.88 33 -17 33 C-17 32.34 -17 31.68 -17 31 C-15.515 30.7525 -15.515 30.7525 -14 30.5 C-13.443125 30.4071875 -12.88625 30.314375 -12.3125 30.21875 C-8.88950733 29.8949534 -5.43827327 30 -2 30 C-1.67 20.76 -1.34 11.52 -1 2 C-14.42676445 2.38638171 -25.03942251 3.83537946 -37.5625 8.8125 C-41.02038007 10.00704039 -41.73840601 10.04913417 -45 9 C-32.1772483 0.31361981 -15.03335956 -0.91860716 0 0 Z " fill="#CAD98B" transform="translate(321,215)"/>
<path d="M0 0 C4.83766699 0.41465717 6.85646376 2.4198615 10 6 C10.33 6.66 10.66 7.32 11 8 C11.66 8.33 12.32 8.66 13 9 C12.4375 10.875 12.4375 10.875 11 13 C7.375 14.25 7.375 14.25 4 15 C3.938125 15.78375 3.87625 16.5675 3.8125 17.375 C3.544375 18.24125 3.27625 19.1075 3 20 C0.4375 21.3125 0.4375 21.3125 -2 22 C-3 19 -3 19 -3.875 15.5 C-4.9335489 12.20673674 -5.50131776 11.15795284 -8 9 C-8 8.34 -8 7.68 -8 7 C-3.71 7.33 0.58 7.66 5 8 C3.7625 6.576875 3.7625 6.576875 2.5 5.125 C0 2.25 0 2.25 0 0 Z " fill="#ECF9F4" transform="translate(163,146)"/>
<path d="M0 0 C1.19431641 0.00193359 2.38863281 0.00386719 3.61914062 0.00585938 C4.85212891 0.01810547 6.08511719 0.03035156 7.35546875 0.04296875 C8.60779297 0.04361328 9.86011719 0.04425781 11.15039062 0.04492188 C20.4026036 0.0901036 20.4026036 0.0901036 21.54296875 1.23046875 C21.72757043 3.6531044 21.85116387 6.04979526 21.9296875 8.4765625 C21.95521194 9.20287369 21.98073639 9.92918488 22.0070343 10.67750549 C22.05912484 12.21664 22.10854178 13.75586692 22.15551758 15.29516602 C22.23005855 17.65498278 22.32069747 20.01383119 22.41210938 22.37304688 C22.46062687 23.86585352 22.50818484 25.35869173 22.5546875 26.8515625 C22.5837468 27.55993759 22.61280609 28.26831268 22.64274597 28.99815369 C22.68769898 30.74199649 22.62423334 32.48794054 22.54296875 34.23046875 C19.75084364 37.02259386 17.08992586 36.5818495 13.34765625 36.64453125 C12.64021271 36.6638974 11.93276917 36.68326355 11.20388794 36.70321655 C8.9420379 36.76304527 6.68013705 36.80940976 4.41796875 36.85546875 C2.88539435 36.89364561 1.35284147 36.93269717 -0.1796875 36.97265625 C-3.93862749 37.06874914 -7.69766793 37.15276724 -11.45703125 37.23046875 C-11.45703125 36.90046875 -11.45703125 36.57046875 -11.45703125 36.23046875 C-0.61777548 34.27870565 9.54691518 34.0612987 20.54296875 34.23046875 C20.21296875 23.67046875 19.88296875 13.11046875 19.54296875 2.23046875 C7.61822586 1.83297732 -2.07435476 2.81199002 -13.45703125 6.23046875 C-15.05224609 6.69259766 -15.05224609 6.69259766 -16.6796875 7.1640625 C-18.94677593 7.83047809 -21.20478793 8.51581462 -23.45703125 9.23046875 C-22.45703125 6.85546875 -22.45703125 6.85546875 -20.45703125 4.23046875 C-16.64453125 3.04296875 -16.64453125 3.04296875 -14.6875 2.6875 C-12.33644403 2.2647497 -12.33644403 2.2647497 -9.72119141 1.21630859 C-6.29602248 0.18184097 -3.56782391 -0.01340793 0 0 Z " fill="#F3FBD0" transform="translate(301.45703125,213.76953125)"/>
<path d="M0 0 C1.32 0 2.64 0 4 0 C5.34277732 2.7663534 6.67255228 5.53876211 8 8.3125 C8.3815625 9.09818359 8.763125 9.88386719 9.15625 10.69335938 C9.5171875 11.45068359 9.878125 12.20800781 10.25 12.98828125 C10.58515625 13.68477783 10.9203125 14.38127441 11.265625 15.09887695 C12 17 12 17 12 20 C11.01 19.67 10.02 19.34 9 19 C8.3125 16.9375 8.3125 16.9375 8 15 C6.20739868 15.05995322 4.41574205 15.1487241 2.625 15.25 C1.62726563 15.29640625 0.62953125 15.3428125 -0.3984375 15.390625 C-3.1526477 15.72160885 -3.1526477 15.72160885 -4.3515625 18.046875 C-4.56554687 18.69140625 -4.77953125 19.3359375 -5 20 C-5.99 20 -6.98 20 -8 20 C-6.54884678 15.42111848 -4.79418096 11.02350565 -2.875 6.625 C-2.59785156 5.98433594 -2.32070312 5.34367187 -2.03515625 4.68359375 C-1.35899615 3.12143075 -0.67981293 1.56057685 0 0 Z " fill="#3B7357" transform="translate(158,323)"/>
<path d="M0 0 C0.33 0.99 0.66 1.98 1 3 C1.66 3.33 2.32 3.66 3 4 C3.73075648 6.3140622 4.40138258 8.64828869 5 11 C2.39892036 13.71931053 0.95202395 14.87582296 -2.875 15.375 C-6 15 -6 15 -8.375 12.8125 C-10.17057181 9.70477956 -10.87157023 8.48628091 -10 5 C-5.11111111 0 -5.11111111 0 0 0 Z " fill="#B5C7BE" transform="translate(187,132)"/>
<path d="M0 0 C-2.37455393 3.56183089 -4.21656518 4.10828259 -8 6 C-10.71281874 8.00029526 -13.22434918 10.19332314 -15.5625 12.625 C-17 14 -17 14 -19.3671875 15.30078125 C-26.2123237 19.71863621 -29.35486991 27.53500927 -32.0234375 34.92578125 C-33.36797777 37.78158479 -35.10098948 38.87260702 -38 40 C-33.8620612 27.11164934 -27.3971875 18.42136966 -18 9 C-17.14664062 8.10925781 -16.29328125 7.21851563 -15.4140625 6.30078125 C-13.17074109 4.16272896 -11.13071108 2.63319821 -8.4375 1.125 C-7.69371094 0.69445312 -6.94992187 0.26390625 -6.18359375 -0.1796875 C-3.6498301 -1.13154862 -2.50122561 -0.91881757 0 0 Z " fill="#A3D76F" transform="translate(278,226)"/>
<path d="M0 0 C0.99 0 1.98 0 3 0 C3 2.64 3 5.28 3 8 C6.96 8 10.92 8 15 8 C15 5.36 15 2.72 15 0 C15.99 0 16.98 0 18 0 C18 6.6 18 13.2 18 20 C17.01 20 16.02 20 15 20 C15 17.03 15 14.06 15 11 C11.04 11 7.08 11 3 11 C3 13.97 3 16.94 3 20 C2.01 20 1.02 20 0 20 C0 13.4 0 6.8 0 0 Z " fill="#3C7B5B" transform="translate(106,323)"/>
<path d="M0 0 C0.66 0 1.32 0 2 0 C2 10.89 2 21.78 2 33 C18.69291738 31.92783528 18.69291738 31.92783528 34.734375 27.70703125 C37 27 37 27 39 28 C39 28.66 39 29.32 39 30 C36.69 30.33 34.38 30.66 32 31 C32 31.66 32 32.32 32 33 C21.65646447 34.52230746 11.47295805 35.62460083 1 35 C0 34 0 34 -0.11352539 30.76538086 C-0.11336631 29.33185874 -0.10767407 27.89833088 -0.09765625 26.46484375 C-0.0962413 25.71159317 -0.09482635 24.95834259 -0.09336853 24.18226624 C-0.08775376 21.7673044 -0.07519883 19.35243399 -0.0625 16.9375 C-0.0574869 15.30403779 -0.05292366 13.67057414 -0.04882812 12.03710938 C-0.03777954 8.02470415 -0.02050506 4.01236759 0 0 Z " fill="#F4FAD6" transform="translate(176,226)"/>
<path d="M0 0 C4.81873065 1.20468266 5.71417103 2.62287177 8.75 6.4375 C9.94882812 7.92056641 9.94882812 7.92056641 11.171875 9.43359375 C13 12 13 12 13 14 C13.66 14 14.32 14 15 14 C15 9.38 15 4.76 15 0 C15.66 0 16.32 0 17 0 C17 6.6 17 13.2 17 20 C12.73312192 17.86656096 11.16610234 16.06301178 8.25 12.375 C7.45078125 11.37210937 6.6515625 10.36921875 5.828125 9.3359375 C5.22484375 8.56507813 4.6215625 7.79421875 4 7 C3.67 11.29 3.34 15.58 3 20 C2.01 20 1.02 20 0 20 C0 13.4 0 6.8 0 0 Z " fill="#2D714E" transform="translate(288,323)"/>
<path d="M0 0 C0.99 0 1.98 0 3 0 C3 2.64 3 5.28 3 8 C6.63 8 10.26 8 14 8 C14 5.36 14 2.72 14 0 C14.99 0 15.98 0 17 0 C17 6.6 17 13.2 17 20 C16.01 20 15.02 20 14 20 C14 17.03 14 14.06 14 11 C10.37 11 6.74 11 3 11 C3 13.97 3 16.94 3 20 C2.01 20 1.02 20 0 20 C0 13.4 0 6.8 0 0 Z " fill="#417C5E" transform="translate(214,323)"/>
<path d="M0 0 C4.26687808 2.13343904 5.83389766 3.93698822 8.75 7.625 C9.54921875 8.62789063 10.3484375 9.63078125 11.171875 10.6640625 C12.07679688 11.82035156 12.07679688 11.82035156 13 13 C13.33 8.71 13.66 4.42 14 0 C14.99 0 15.98 0 17 0 C17 6.6 17 13.2 17 20 C12.34630194 18.83657548 11.69751655 17.82754072 8.875 14.125 C8.19179688 13.24070312 7.50859375 12.35640625 6.8046875 11.4453125 C5.48982366 9.66370046 4.2282581 7.84238715 3 6 C2.67 10.62 2.34 15.24 2 20 C1.34 20 0.68 20 0 20 C0 13.4 0 6.8 0 0 Z " fill="#2B704C" transform="translate(314,323)"/>
<path d="M0 0 C2.82424288 2.19022918 4.41508603 3.83017207 6 7 C6.41204834 11.63554388 5.87454146 14.30416098 3 18 C-0.01002441 20.34113009 -3.27741542 20.41216607 -7.03125 20.328125 C-10.14316604 19.80947233 -11.85067869 18.21445226 -14 16 C-15.7473737 12.50525261 -15.55225821 8.81321144 -15 5 C-11.42426083 -0.84037397 -6.32873667 -1.33017782 0 0 Z M-11.0625 4 C-13.30145098 6.90423618 -13.30145098 6.90423618 -13.125 10.5625 C-11.79172189 14.63640532 -10.77130118 15.98863937 -7 18 C-3.36924173 18 -1.57951586 17.41176127 1.375 15.3125 C3.50202353 12.2855819 3.52958637 10.63144937 3 7 C2.14782671 4.55797882 2.14782671 4.55797882 0 3 C-4.44783943 1.42111328 -7.0646674 1.38917055 -11.0625 4 Z " fill="#3D7056" transform="translate(276,323)"/>
<path d="M0 0 C0.66 0 1.32 0 2 0 C2 13.86 2 27.72 2 42 C-8.56 42 -19.12 42 -30 42 C-30 31 -30 31 -28 28 C-28.33 31.3 -28.66 34.6 -29 38 C-28.34 38 -27.68 38 -27 38 C-27 38.66 -27 39.32 -27 40 C-26.34 40 -25.68 40 -25 40 C-24.67 39.34 -24.34 38.68 -24 38 C-24 38.66 -24 39.32 -24 40 C-21.06217531 39.85924795 -18.12484829 39.7126162 -15.1875 39.5625 C-14.35412109 39.52318359 -13.52074219 39.48386719 -12.66210938 39.44335938 C-11.85966797 39.40146484 -11.05722656 39.35957031 -10.23046875 39.31640625 C-9.49207764 39.27974854 -8.75368652 39.24309082 -7.99291992 39.20532227 C-5.792505 39.05157859 -5.792505 39.05157859 -3 38 C-3 38.66 -3 39.32 -3 40 C-2.01 40 -1.02 40 0 40 C0.02501955 36.05306991 0.04300863 32.10617158 0.05493164 28.15917969 C0.06233777 26.16860325 0.07505474 24.17804883 0.08789062 22.1875 C0.10442413 15.64023007 -0.01637607 9.24860113 -0.88110352 2.75341797 C-0.92033936 2.17479004 -0.9595752 1.59616211 -1 1 C-0.67 0.67 -0.34 0.34 0 0 Z " fill="#13753D" transform="translate(264,261)"/>
<path d="M0 0 C4.62 0 9.24 0 14 0 C14 0.66 14 1.32 14 2 C10.37 2 6.74 2 3 2 C3 4.31 3 6.62 3 9 C6.3 9 9.6 9 13 9 C13 9.66 13 10.32 13 11 C9.7 11 6.4 11 3 11 C3 12.98 3 14.96 3 17 C6.63 17 10.26 17 14 17 C14 17.99 14 18.98 14 20 C9.38 20 4.76 20 0 20 C0 13.4 0 6.8 0 0 Z " fill="#448262" transform="translate(339,323)"/>
<path d="M0 0 C-2.58764115 1.58936334 -5.12330543 3.00821541 -8 4 C-11.25 3.0625 -11.25 3.0625 -14 2 C-16.25192383 3.00366806 -16.25192383 3.00366806 -18 5 C-18.64163672 7.59905411 -18.64163672 7.59905411 -18.609375 10.54296875 C-18.64160156 11.61611328 -18.67382812 12.68925781 -18.70703125 13.79492188 C-18.72121094 14.91447266 -18.73539063 16.03402344 -18.75 17.1875 C-18.77964844 18.31865234 -18.80929688 19.44980469 -18.83984375 20.61523438 C-18.91060309 23.41022833 -18.96326976 26.20438528 -19 29 C-19.99 29 -20.98 29 -22 29 C-22 19.43 -22 9.86 -22 0 C-19.1125 -0.185625 -16.225 -0.37125 -13.25 -0.5625 C-12.34668945 -0.62381104 -11.44337891 -0.68512207 -10.51269531 -0.74829102 C-9.79178711 -0.79139404 -9.07087891 -0.83449707 -8.328125 -0.87890625 C-7.5949707 -0.9260376 -6.86181641 -0.97316895 -6.10644531 -1.02172852 C-3.91642774 -0.99913793 -2.09512813 -0.61487456 0 0 Z " fill="#C9DB74" transform="translate(201,227)"/>
<path d="M0 0 C0.495 1.485 0.495 1.485 1 3 C-15.96064179 11.48032089 -35.27256632 13.22677014 -54 13 C-53.67 12.01 -53.34 11.02 -53 10 C-43.43 9.67 -33.86 9.34 -24 9 C-24 8.34 -24 7.68 -24 7 C-23.02160156 6.82984375 -22.04320312 6.6596875 -21.03515625 6.484375 C-13.49684064 5.11211114 -6.89001286 3.50544514 0 0 Z " fill="#F3FCDC" transform="translate(232,213)"/>
<path d="M0 0 C0.66 0.33 1.32 0.66 2 1 C1.67 2.32 1.34 3.64 1 5 C0.34 5 -0.32 5 -1 5 C-1.12117188 5.91523438 -1.24234375 6.83046875 -1.3671875 7.7734375 C-1.53476562 8.96195313 -1.70234375 10.15046875 -1.875 11.375 C-2.03742188 12.55835938 -2.19984375 13.74171875 -2.3671875 14.9609375 C-3 18 -3 18 -5 20 C-5.33 18.68 -5.66 17.36 -6 16 C-10.61427234 17.06690426 -10.61427234 17.06690426 -13.5625 20.5625 C-14.036875 21.366875 -14.51125 22.17125 -15 23 C-17.4375 23.6875 -17.4375 23.6875 -20 24 C-20.721875 24.37125 -21.44375 24.7425 -22.1875 25.125 C-22.785625 25.41375 -23.38375 25.7025 -24 26 C-24.66 25.67 -25.32 25.34 -26 25 C-25 22 -25 22 -22.4375 20.6875 C-21.303125 20.130625 -20.16875 19.57375 -19 19 C-11.3207374 13.91676342 -4.8045973 7.87953957 0 0 Z " fill="#82DA64" transform="translate(261,192)"/>
<path d="M0 0 C1.76953125 1.53125 1.76953125 1.53125 3 3 C0 4 0 4 -3.4375 3.375 C-6.87563485 2.74011325 -6.87563485 2.74011325 -9.4375 3.9375 C-11.51450541 6.67914715 -11.48026467 8.6974682 -11.53125 12.0625 C-11.1239536 14.15351282 -11.1239536 14.15351282 -9.296875 15.76953125 C-6.44176449 17.29905474 -4.92603034 17.1471886 -1.75 16.6875 C-0.85796875 16.56761719 0.0340625 16.44773437 0.953125 16.32421875 C1.62859375 16.21722656 2.3040625 16.11023438 3 16 C2.67 16.99 2.34 17.98 2 19 C-1.71014101 20.23671367 -5.14438758 20.56368603 -9 20 C-11.8100346 18.20636089 -13.50940468 16.98119065 -15 14 C-15.47851428 10.91691431 -15.54119771 8.07739876 -15 5 C-10.96086061 -0.07481616 -6.4013713 -1.46317058 0 0 Z " fill="#357352" transform="translate(253,323)"/>
<path d="M0 0 C2.08466413 3.38757921 2.42905061 6.05273438 2 10 C-1 12 -1 12 -4 11.9375 C-7.00958932 11.69592029 -7.00958932 11.69592029 -8.875 13.5 C-9.24625 13.995 -9.6175 14.49 -10 15 C-9.4740625 13.329375 -9.4740625 13.329375 -8.9375 11.625 C-7.62760669 8.19735524 -7.62760669 8.19735524 -9 6 C-10.65 6 -12.3 6 -14 6 C-14 5.34 -14 4.68 -14 4 C-12.23141309 3.32739649 -10.46003984 2.66211605 -8.6875 2 C-7.70136719 1.62875 -6.71523438 1.2575 -5.69921875 0.875 C-3 0 -3 0 0 0 Z " fill="#5C7D6D" transform="translate(377,198)"/>
<path d="M0 0 C2.97 0 5.94 0 9 0 C9 0.33 9 0.66 9 1 C6.69 1 4.38 1 2 1 C2 2.65 2 4.3 2 6 C3.918125 5.938125 3.918125 5.938125 5.875 5.875 C8.0546875 5.8046875 8.0546875 5.8046875 10 6 C10.66 6.66 11.32 7.32 12 8 C11.01 8 10.02 8 9 8 C9.33 8.66 9.66 9.32 10 10 C11.32 9.34 12.64 8.68 14 8 C14.99 8.99 15.98 9.98 17 11 C16.01 11.33 15.02 11.66 14 12 C13.67 12.33 13.34 12.66 13 13 C12 14 12 14 9.27734375 14.09765625 C6.18489583 14.06510417 3.09244792 14.03255208 0 14 C0 9.38 0 4.76 0 0 Z " fill="#F6F9F7" transform="translate(240,115)"/>
<path d="M0 0 C0.66 0.33 1.32 0.66 2 1 C1.34 1.66 0.68 2.32 0 3 C-0.64767793 5.57061311 -0.64767793 5.57061311 -1 8 C1.71224618 6.38731308 4.37352812 4.75098126 7 3 C9.1875 3.375 9.1875 3.375 11 4 C11.22179212 7.25295114 11.28601103 9.42797793 9.8125 12.375 C8 14 8 14 5.3125 14.25 C4.549375 14.1675 3.78625 14.085 3 14 C2.67 13.34 2.34 12.68 2 12 C1.01 12.66 0.02 13.32 -1 14 C-3.3297964 10.35969312 -3.3862557 7.24881273 -3 3 C-1.5 1.0625 -1.5 1.0625 0 0 Z " fill="#E0F3EC" transform="translate(135,178)"/>
<path d="M0 0 C0.99 0.66 1.98 1.32 3 2 C3 2.66 3 3.32 3 4 C1.98679687 3.82210938 1.98679687 3.82210938 0.953125 3.640625 C-4.57068297 2.73063017 -4.57068297 2.73063017 -9.6875 4.5 C-11.53745988 8.0237331 -10.98119929 10.21537417 -10 14 C-8.16262173 16.27216848 -8.16262173 16.27216848 -5.3984375 16.1953125 C-4.40070313 16.17210937 -3.40296875 16.14890625 -2.375 16.125 C-1.37210937 16.10695313 -0.36921875 16.08890625 0.6640625 16.0703125 C1.43492187 16.04710937 2.20578125 16.02390625 3 16 C2 19 2 19 0 20 C-7.08958838 20.5811138 -7.08958838 20.5811138 -10.9375 18.125 C-13.71068709 15.26777694 -14.20503898 13.57699254 -14.375 9.6875 C-14.31189983 6.13094468 -14.04355638 5.06884718 -12.0625 1.9375 C-8.03294265 -0.61181179 -4.66488876 -0.82989594 0 0 Z " fill="#386D52" transform="translate(373,323)"/>
<path d="M0 0 C4.62 0 9.24 0 14 0 C14 0.66 14 1.32 14 2 C10.04 2 6.08 2 2 2 C2 4.31 2 6.62 2 9 C5.3 9 8.6 9 12 9 C12 9.66 12 10.32 12 11 C8.7 11 5.4 11 2 11 C2 13.31 2 15.62 2 18 C5.96 18 9.92 18 14 18 C14 18.66 14 19.32 14 20 C9.38 20 4.76 20 0 20 C0 13.4 0 6.8 0 0 Z " fill="#2D664A" transform="translate(132,323)"/>
<path d="M0 0 C0.66 0 1.32 0 2 0 C2.78688445 2.77723925 3.11949924 5.22610077 3.09765625 8.109375 C3.09443359 8.86347656 3.09121094 9.61757813 3.08789062 10.39453125 C3.07951172 11.17183594 3.07113281 11.94914062 3.0625 12.75 C3.05798828 13.54277344 3.05347656 14.33554687 3.04882812 15.15234375 C3.03708565 17.10159508 3.01915146 19.05080738 3 21 C-0.14323218 21.9954705 -0.89877266 22.0357273 -4.1875 20.875 C-7 19 -7 19 -7.875 16.3125 C-7.936875 15.1678125 -7.936875 15.1678125 -8 14 C-8.99 14 -9.98 14 -11 14 C-11.33 15.32 -11.66 16.64 -12 18 C-12.66 18 -13.32 18 -14 18 C-14 14.04 -14 10.08 -14 6 C-9.59290123 9.07161429 -6.70500033 12.80098625 -3.55078125 17.07421875 C-2.13484525 19.10597061 -2.13484525 19.10597061 0 20 C0 13.4 0 6.8 0 0 Z " fill="#DBFDEC" transform="translate(305,323)"/>
<path d="M0 0 C-0.53515625 1.8359375 -0.53515625 1.8359375 -2 4 C-4.53056845 5.10236556 -6.79759845 5.90328117 -9.4375 6.625 C-10.18451172 6.83664795 -10.93152344 7.0482959 -11.70117188 7.26635742 C-23.24632146 10.3427524 -35.09519006 11.1299136 -47 11 C-44.0909052 9.37103948 -41.73915676 8.68360667 -38.4296875 8.359375 C-37.54128174 8.26116455 -36.65287598 8.1629541 -35.73754883 8.06176758 C-34.79290771 7.95888428 -33.8482666 7.85600098 -32.875 7.75 C-23.5752931 6.6350845 -15.221589 4.45255742 -6.45703125 1.20703125 C-3 0 -3 0 0 0 Z " fill="#B4D980" transform="translate(235,216)"/>
<path d="M0 0 C0 2 0 2 -1.50390625 3.5859375 C-12.33624454 13 -12.33624454 13 -18 13 C-18.12375 13.61875 -18.2475 14.2375 -18.375 14.875 C-19 17 -19 17 -21 19 C-23.125 18.625 -23.125 18.625 -25 18 C-8.04854369 0 -8.04854369 0 0 0 Z " fill="#128129" transform="translate(266,259)"/>
<path d="M0 0 C0.99 0 1.98 0 3 0 C3 5.61 3 11.22 3 17 C6.63 17 10.26 17 14 17 C14 17.99 14 18.98 14 20 C9.38 20 4.76 20 0 20 C0 13.4 0 6.8 0 0 Z " fill="#447C5E" transform="translate(176,323)"/>
<path d="M0 0 C0.83414558 2.38480081 1.11903995 3.63319086 0.328125 6.0703125 C-0.20554688 7.08738281 -0.20554688 7.08738281 -0.75 8.125 C-1.09546875 8.80820313 -1.4409375 9.49140625 -1.796875 10.1953125 C-3 12 -3 12 -6 14 C-7.20450304 16.55183404 -7.20450304 16.55183404 -8 19 C-8.66 19 -9.32 19 -10 19 C-10 19.66 -10 20.32 -10 21 C-15.00873617 25.89225393 -15.00873617 25.89225393 -18.875 26.3125 C-19.57625 26.209375 -20.2775 26.10625 -21 26 C-19.948125 24.9790625 -19.948125 24.9790625 -18.875 23.9375 C-16.17764168 21.25551124 -13.74955877 18.38732727 -11.33203125 15.453125 C-10 14 -10 14 -8 13 C-6.95650161 11.36021682 -5.96817992 9.68535024 -5 8 C-4.10901705 6.55948864 -3.21294882 5.12211337 -2.3125 3.6875 C-1.87550781 2.99011719 -1.43851563 2.29273438 -0.98828125 1.57421875 C-0.66214844 1.05472656 -0.33601563 0.53523437 0 0 Z " fill="#EEFBDD" transform="translate(255,218)"/>
<path d="M0 0 C0.66 0 1.32 0 2 0 C0.99941002 3.15570687 -0.07534463 6.16706854 -1.4375 9.1875 C-6.29996286 20.54953633 -7.42189946 32.85386926 -9 45 C-9.33 45 -9.66 45 -10 45 C-10.71774973 26.87681941 -10.71774973 26.87681941 -7.1484375 18.73828125 C-5.26999506 14.25940998 -4.17221568 9.5588137 -2.9296875 4.87109375 C-2 2 -2 2 0 0 Z " fill="#E6FDDD" transform="translate(242,256)"/>
<path d="M0 0 C1.65 0 3.3 0 5 0 C6.20270964 2.40541929 6.20316663 4.10366591 6.31640625 6.7890625 C6.35830078 7.73007812 6.40019531 8.67109375 6.44335938 9.640625 C6.48267578 10.62546875 6.52199219 11.6103125 6.5625 12.625 C6.60568359 13.61757813 6.64886719 14.61015625 6.69335938 15.6328125 C6.79961069 18.08839838 6.90164964 20.54408703 7 23 C6.01 23 5.02 23 4 23 C4 16.4 4 9.8 4 3 C3.01 3 2.02 3 1 3 C1 5.64 1 8.28 1 11 C-2.63 11 -6.26 11 -10 11 C-10 8.36 -10 5.72 -10 3 C-9.67 3 -9.34 3 -9 3 C-8.67 5.31 -8.34 7.62 -8 10 C-4.535 9.505 -4.535 9.505 -1 9 C-1.020625 7.88625 -1.04125 6.7725 -1.0625 5.625 C-1 2 -1 2 0 0 Z " fill="#DDFBEC" transform="translate(227,320)"/>
<path d="M0 0 C5.61 0 11.22 0 17 0 C17 0.66 17 1.32 17 2 C14.69 2 12.38 2 10 2 C10 7.94 10 13.88 10 20 C9.01 20 8.02 20 7 20 C7 14.06 7 8.12 7 2 C4.69 2 2.38 2 0 2 C0 1.34 0 0.68 0 0 Z " fill="#306C4E" transform="translate(192,323)"/>
<path d="M0 0 C5.28 0 10.56 0 16 0 C16 0.66 16 1.32 16 2 C14.02 2 12.04 2 10 2 C10 7.94 10 13.88 10 20 C9.01 20 8.02 20 7 20 C7 14.06 7 8.12 7 2 C4.69 2 2.38 2 0 2 C0 1.34 0 0.68 0 0 Z " fill="#3D7D61" transform="translate(380,323)"/>
<path d="M0 0 C0.66 0 1.32 0 2 0 C1.690625 0.598125 1.38125 1.19625 1.0625 1.8125 C-0.10209704 4.08956772 -0.10209704 4.08956772 -1 7 C1.90600261 8.25664978 3.79604584 9 7 9 C8.68798827 7.56249809 8.68798827 7.56249809 10 6 C8.50328459 10.49014624 6.16631659 14.47848764 3 18 C2.34 18 1.68 18 1 18 C0.896875 17.05125 0.79375 16.1025 0.6875 15.125 C0.31460705 11.70892499 0.31460705 11.70892499 -3 10 C-4.98 10.99 -4.98 10.99 -7 12 C-5.50328459 7.50985376 -3.16631659 3.52151236 0 0 Z " fill="#82A394" transform="translate(327,139)"/>
<path d="M0 0 C0.99 0.33 1.98 0.66 3 1 C3.87987606 3.38066801 4.57258894 5.61481901 5.1875 8.0625 C5.36474609 8.72572266 5.54199219 9.38894531 5.72460938 10.07226562 C6.16105196 11.71187426 6.58200219 13.35559238 7 15 C6.34 15 5.68 15 5 15 C4.67 13.68 4.34 12.36 4 11 C-1.36090593 10.46326107 -1.36090593 10.46326107 -6 12.5 C-6.33 12.995 -6.66 13.49 -7 14 C-6.34097701 10.42959697 -4.83770842 7.82267745 -2.9375 4.75 C-2.38964844 3.85796875 -1.84179688 2.9659375 -1.27734375 2.046875 C-0.64505859 1.03367187 -0.64505859 1.03367187 0 0 Z " fill="#597869" transform="translate(267,116)"/>
<path d="M0 0 C3.91777545 3.91777545 7.08646042 7.61638903 10.3515625 12.01171875 C12.0253763 14.22383501 12.0253763 14.22383501 15 16 C12.03 15.67 9.06 15.34 6 15 C5 11 5 11 5 9 C4.34 9 3.68 9 3 9 C2.67 10.98 2.34 12.96 2 15 C1.34 15 0.68 15 0 15 C0 10.05 0 5.1 0 0 Z " fill="#EEFDF5" transform="translate(316,328)"/>
<path d="M0 0 C0 0.33 0 0.66 0 1 C-1.13695312 1.17015625 -2.27390625 1.3403125 -3.4453125 1.515625 C-14.04889858 3.15856402 -24.80137347 4.84343873 -34.69921875 9.18359375 C-37 10 -37 10 -40 9 C-38 7 -38 7 -35.375 6.875 C-34.59125 6.91625 -33.8075 6.9575 -33 7 C-33 6.01 -33 5.02 -33 4 C-21.96364931 0.88868837 -11.43700884 -0.19061681 0 0 Z " fill="#B5D781" transform="translate(304,248)"/>
<path d="M0 0 C0.33 0 0.66 0 1 0 C1.60955481 7.31465768 -0.47755747 11.86968233 -5.05859375 17.5546875 C-9.07420994 22.11881113 -13.18112344 26.29317187 -18 30 C-18.33 29.34 -18.66 28.68 -19 28 C-18.34 27.67 -17.68 27.34 -17 27 C-15.86649466 24.98330173 -15.86649466 24.98330173 -15 23 C-14.34 23 -13.68 23 -13 23 C-13 22.01 -13 21.02 -13 20 C-12.401875 19.731875 -11.80375 19.46375 -11.1875 19.1875 C-7.5412013 17.20808071 -6.28301961 15.75968421 -4.8125 11.8125 C-4.544375 10.884375 -4.27625 9.95625 -4 9 C-3.34 9 -2.68 9 -2 9 C-2.04125 8.2575 -2.0825 7.515 -2.125 6.75 C-1.99601866 3.91241048 -1.42948778 2.41226062 0 0 Z " fill="#0E8127" transform="translate(263,180)"/>
<path d="M0 0 C9.9 0 19.8 0 30 0 C30 0.33 30 0.66 30 1 C20.43 1.33 10.86 1.66 1 2 C1.0968071 7.51800458 1.19945447 13.03523476 1.31738281 18.55273438 C1.35571977 20.43059576 1.39056427 22.30853176 1.421875 24.18652344 C1.46742363 26.88243321 1.52543375 29.57782712 1.5859375 32.2734375 C1.59748871 33.11619232 1.60903992 33.95894714 1.62094116 34.82723999 C1.54193181 39.39020957 1.54193181 39.39020957 4 43 C2.02 43.495 2.02 43.495 0 44 C0 29.48 0 14.96 0 0 Z " fill="#14733E" transform="translate(234,171)"/>
<path d="M0 0 C-0.66701703 3.52448507 -2.10357831 6.18300138 -3.9375 9.25 C-4.46214844 10.14203125 -4.98679687 11.0340625 -5.52734375 11.953125 C-6.01332031 12.62859375 -6.49929688 13.3040625 -7 14 C-7.66 14 -8.32 14 -9 14 C-8.773125 13.278125 -8.54625 12.55625 -8.3125 11.8125 C-7.76673765 8.94434612 -7.76673765 8.94434612 -9.125 6.25 C-10.83231356 3.78178198 -10.83231356 3.78178198 -13.6875 3.1875 C-14.8321875 3.0946875 -14.8321875 3.0946875 -16 3 C-11.23513188 -0.17657874 -5.6216797 -0.17567749 0 0 Z " fill="#5F7E6E" transform="translate(367,179)"/>
<path d="M0 0 C3.96 0 7.92 0 12 0 C12 0.33 12 0.66 12 1 C8.7 1.33 5.4 1.66 2 2 C2.33 2.66 2.66 3.32 3 4 C4.89533342 4.46523063 4.89533342 4.46523063 7.0625 4.625 C8.361875 4.74875 9.66125 4.8725 11 5 C11 6.65 11 8.3 11 10 C8.03 10 5.06 10 2 10 C2.66 11.32 3.32 12.64 4 14 C6.67790463 14.83886169 9.1737941 14.81766414 12 15 C12 15.33 12 15.66 12 16 C8.04 16 4.08 16 0 16 C0 13.69 0 11.38 0 9 C3.3 9 6.6 9 10 9 C10 8.34 10 7.68 10 7 C6.7 7 3.4 7 0 7 C0 4.69 0 2.38 0 0 Z " fill="#AEDBC5" transform="translate(134,325)"/>
<path d="M0 0 C0.66 0 1.32 0 2 0 C1.67 0.99 1.34 1.98 1 3 C0.67 2.01 0.34 1.02 0 0 Z M-5 1 C-4.34 1.66 -3.68 2.32 -3 3 C-2.01 3 -1.02 3 0 3 C-0.57584432 5.38564077 -1.22227595 7.66682784 -2 10 C-2.66 10 -3.32 10 -4 10 C-4.10957031 10.556875 -4.21914062 11.11375 -4.33203125 11.6875 C-5.44275248 17.03341031 -6.97225526 21.93063816 -9 27 C-9.33 27 -9.66 27 -10 27 C-9.66219755 17.77799299 -7.78937152 9.77030302 -5 1 Z " fill="#8BD274" transform="translate(244,265)"/>
<path d="M0 0 C0 0.66 0 1.32 0 2 C-1.40177604 2.8726892 -2.84996598 3.6709775 -4.3125 4.4375 C-10.98318729 8.27647103 -15.75372011 13.43946707 -21 19 C-21.99570821 20.00427345 -22.9933777 21.00666645 -24 22 C-23.67 20.35 -23.34 18.7 -23 17 C-22.34 17 -21.68 17 -21 17 C-20.896875 16.443125 -20.79375 15.88625 -20.6875 15.3125 C-19.79318157 12.30433801 -18.98466957 10.48083697 -17 8 C-14.69905587 6.79138133 -12.38970587 5.81809204 -9.9609375 4.89453125 C-7.821584 4.16662502 -7.821584 4.16662502 -7 2 C-2.66666667 0 -2.66666667 0 0 0 Z " fill="#77D861" transform="translate(263,258)"/>
<path d="M0 0 C1.39456452 0.00667256 2.78911118 0.01863093 4.18359375 0.03515625 C4.89451172 0.03966797 5.60542969 0.04417969 6.33789062 0.04882812 C8.09899388 0.06064761 9.86005411 0.07858362 11.62109375 0.09765625 C11.62109375 0.42765625 11.62109375 0.75765625 11.62109375 1.09765625 C9.97109375 1.09765625 8.32109375 1.09765625 6.62109375 1.09765625 C6.45235897 2.53491496 6.28618638 3.97247463 6.12109375 5.41015625 C6.02828125 6.21066406 5.93546875 7.01117188 5.83984375 7.8359375 C5.57295912 10.2166218 5.57295912 10.2166218 5.62109375 13.09765625 C5.37359375 12.47890625 5.12609375 11.86015625 4.87109375 11.22265625 C3.81859477 8.97417823 3.81859477 8.97417823 1.74609375 8.22265625 C-1.35777089 6.57943379 -2.58584399 4.0434014 -4.37890625 1.09765625 C-3.37890625 0.09765625 -3.37890625 0.09765625 0 0 Z " fill="#658775" transform="translate(126.37890625,200.90234375)"/>
<path d="M0 0 C0 0.66 0 1.32 0 2 C2.31 2 4.62 2 7 2 C7 7.94 7 13.88 7 20 C6.01 19.67 5.02 19.34 4 19 C3.81548975 9.58997722 3.81548975 9.58997722 5 5 C2.36 5 -0.28 5 -3 5 C-3.66 3.68 -4.32 2.36 -5 1 C-3 0 -3 0 0 0 Z " fill="#D4F3E2" transform="translate(380,323)"/>
<path d="M0 0 C0.99 0 1.98 0 3 0 C3.58956456 11.04887648 3.58956456 11.04887648 0 16 C-4.35501919 18.9460424 -9.08323209 17.87076927 -14 17 C-14.71027344 16.88269531 -15.42054688 16.76539063 -16.15234375 16.64453125 C-18 16 -18 16 -20 13 C-20.1953125 10.30078125 -20.1953125 10.30078125 -20.125 7.3125 C-20.10695313 6.31863281 -20.08890625 5.32476562 -20.0703125 4.30078125 C-20.04710937 3.54152344 -20.02390625 2.78226562 -20 2 C-19.67 2 -19.34 2 -19 2 C-18.90203125 2.68707031 -18.8040625 3.37414062 -18.703125 4.08203125 C-18.47882813 5.43361328 -18.47882813 5.43361328 -18.25 6.8125 C-18.11078125 7.70582031 -17.9715625 8.59914063 -17.828125 9.51953125 C-16.80721522 12.57744498 -15.80224209 13.46279885 -13 15 C-10.31018242 15.4412982 -7.71085548 15.21753779 -5 15 C-4.21625 14.938125 -3.4325 14.87625 -2.625 14.8125 C-0.77465305 14.07511565 -0.77465305 14.07511565 0.25 11.8125 C1.38737603 7.54733988 1.3957226 4.18716781 0 0 Z " fill="#CFF1E2" transform="translate(280,327)"/>
<path d="M0 0 C1.11177467 0.88637378 2.21406614 1.7846465 3.3125 2.6875 C3.92738281 3.18636719 4.54226562 3.68523437 5.17578125 4.19921875 C7 6 7 6 10 11 C3.07 10.505 3.07 10.505 -4 10 C-2.02 12.31 -0.04 14.62 2 17 C-1 17 -1 17 -2.82421875 15.3203125 C-3.43910156 14.59585938 -4.05398437 13.87140625 -4.6875 13.125 C-5.31011719 12.40570313 -5.93273437 11.68640625 -6.57421875 10.9453125 C-8 9 -8 9 -8 7 C-3.71 7.33 0.58 7.66 5 8 C3.7625 6.576875 3.7625 6.576875 2.5 5.125 C0 2.25 0 2.25 0 0 Z " fill="#5E7F6F" transform="translate(163,146)"/>
<path d="M0 0 C3.91593446 0.78318689 7.36406635 2.39179858 11 4 C10.67 5.65 10.34 7.3 10 9 C9.01 9 8.02 9 7 9 C5.43750191 10.31201173 5.43750191 10.31201173 4 12 C2.4375 13.6875 2.4375 13.6875 1 15 C0.34 15 -0.32 15 -1 15 C-0.71125 14.319375 -0.4225 13.63875 -0.125 12.9375 C1.12597355 9.67106907 2.07447955 6.37153877 3 3 C2.01 2.01 1.02 1.02 0 0 Z " fill="#D4E6DE" transform="translate(306,127)"/>
<path d="M0 0 C0.99 0.33 1.98 0.66 3 1 C3.73046875 2.84765625 3.73046875 2.84765625 4.1875 5.0625 C4.34605469 5.79597656 4.50460938 6.52945312 4.66796875 7.28515625 C4.83232422 8.13400391 4.83232422 8.13400391 5 9 C7.31 9 9.62 9 12 9 C12 6.69 12 4.38 12 2 C13.32 1.34 14.64 0.68 16 0 C16.33 0.99 16.66 1.98 17 3 C16.01 3 15.02 3 14 3 C14 5.64 14 8.28 14 11 C10.04 11 6.08 11 2 11 C2 8.36 2 5.72 2 3 C1.01 3 0.02 3 -1 3 C-0.67 2.01 -0.34 1.02 0 0 Z " fill="#D8F9EB" transform="translate(107,320)"/>
<path d="M0 0 C0.66 0 1.32 0 2 0 C1.67 2.97 1.34 5.94 1 9 C2.32 9 3.64 9 5 9 C5.33 7.02 5.66 5.04 6 3 C6.66 3 7.32 3 8 3 C7.67 5.64 7.34 8.28 7 11 C8.65 11 10.3 11 12 11 C12.33 8.36 12.66 5.72 13 3 C13.66 3.33 14.32 3.66 15 4 C14.34 6.97 13.68 9.94 13 13 C3.42857143 12 3.42857143 12 -1 11 C-1.14285714 3.57142857 -1.14285714 3.57142857 0 0 Z " fill="#708C7F" transform="translate(116,220)"/>
<path d="M0 0 C2.875 1.125 2.875 1.125 6 3 C7.375 6.1875 7.375 6.1875 8 9 C9.32 8.67 10.64 8.34 12 8 C12.33 6.02 12.66 4.04 13 2 C14.32 2.33 15.64 2.66 17 3 C16.01 3 15.02 3 14 3 C14 7.62 14 12.24 14 17 C10.34170836 13.45256568 6.97088523 9.73084843 3.6484375 5.8671875 C2.15535018 4.17596537 0.61414247 2.57501175 -1 1 C-0.67 0.67 -0.34 0.34 0 0 Z " fill="#D7F7E7" transform="translate(314,320)"/>
<path d="M0 0 C0 0.66 0 1.32 0 2 C-1.03898437 2.25394531 -2.07796875 2.50789062 -3.1484375 2.76953125 C-10.82767688 4.65986225 -18.45815952 6.606916 -26 9 C-25 6.625 -25 6.625 -23 4 C-19.1875 2.8125 -19.1875 2.8125 -17.0390625 2.40234375 C-14.80914223 2.02239871 -14.80914223 2.02239871 -12.0625 0.875 C-7.99621466 -0.28679581 -4.19876127 -0.16795045 0 0 Z " fill="#F6FEE3" transform="translate(304,214)"/>
<path d="M0 0 C1.98 0 3.96 0 6 0 C5.2733313 0.81549316 5.2733313 0.81549316 4.53198242 1.64746094 C2.6691501 4.50805891 2.57849143 6.24872215 2.48828125 9.640625 C2.43510742 11.24550781 2.43510742 11.24550781 2.38085938 12.8828125 C2.35830078 13.99398437 2.33574219 15.10515625 2.3125 16.25 C2.27833984 17.37664062 2.24417969 18.50328125 2.20898438 19.6640625 C2.12656986 22.44260901 2.05739702 25.22084252 2 28 C1.34 28 0.68 28 0 28 C0 18.76 0 9.52 0 0 Z " fill="#C8E064" transform="translate(180,228)"/>
<path d="M0 0 C0.66 0 1.32 0 2 0 C2.2475 1.093125 2.495 2.18625 2.75 3.3125 C3.71486951 6.93110434 3.71486951 6.93110434 5.75 9 C8.85281864 10.37903051 10.74956439 9.8126089 14 9 C14.78375 8.814375 15.5675 8.62875 16.375 8.4375 C16.91125 8.293125 17.4475 8.14875 18 8 C18 8.99 18 9.98 18 11 C14.30082559 13.46611627 10.29682956 13.71613826 6 13 C3.1899654 11.20636089 1.49059532 9.98119065 0 7 C-0.04022391 4.6670134 -0.04320247 2.33293334 0 0 Z " fill="#3A6F56" transform="translate(261,330)"/>
<path d="M0 0 C0.66 0 1.32 0 2 0 C3.15774649 4.63098598 4.19218189 10.61563621 2 15 C2.9075 14.79375 3.815 14.5875 4.75 14.375 C8.11027897 13.9872755 9.24075815 14.19588033 12 16 C11 17 11 17 8.49609375 17.09765625 C5.6640625 17.06510417 2.83203125 17.03255208 0 17 C0 11.39 0 5.78 0 0 Z " fill="#E9FEF2" transform="translate(179,323)"/>
<path d="M0 0 C2.43375 -0.020625 4.8675 -0.04125 7.375 -0.0625 C8.13989746 -0.071604 8.90479492 -0.08070801 9.69287109 -0.09008789 C14.77777778 -0.11111111 14.77777778 -0.11111111 17 1 C16.67 2.32 16.34 3.64 16 5 C15.67 4.34 15.34 3.68 15 3 C10.38 3 5.76 3 1 3 C1 9.6 1 16.2 1 23 C0.67 23 0.34 23 0 23 C0 15.41 0 7.82 0 0 Z " fill="#D2F3E1" transform="translate(338,320)"/>
<path d="M0 0 C0.33 3.3 0.66 6.6 1 10 C-1.35953094 7.64046906 -1.49141413 6.22104383 -2 3 C-3.32 3 -4.64 3 -6 3 C-5.67 5.64 -5.34 8.28 -5 11 C-5.66 11 -6.32 11 -7 11 C-7.33 8.69 -7.66 6.38 -8 4 C-9.65 4 -11.3 4 -13 4 C-12.67 6.97 -12.34 9.94 -12 13 C-13.80330533 9.39338934 -14.46599103 6.91606575 -15 3 C-13.25183142 2.49363393 -11.50137737 1.99515381 -9.75 1.5 C-8.77546875 1.2215625 -7.8009375 0.943125 -6.796875 0.65625 C-4 0 -4 0 0 0 Z " fill="#69897A" transform="translate(385,221)"/>
<path d="M0 0 C0.66 0 1.32 0 2 0 C1.52596766 6.64303649 0.182544 11.86676287 -2.5 17.9375 C-2.98146484 19.06768555 -2.98146484 19.06768555 -3.47265625 20.22070312 C-4.59432748 22.84184699 -5.72469541 25.44939082 -7 28 C-7.66 28 -8.32 28 -9 28 C-8.5875 26.783125 -8.175 25.56625 -7.75 24.3125 C-6.06731781 19.27242824 -4.5103942 14.19683876 -2.96484375 9.11328125 C-2.01868396 6.06028793 -1.02160338 3.02848646 0 0 Z " fill="#E1FAD3" transform="translate(265,190)"/>
<path d="M0 0 C0 0.33 0 0.66 0 1 C-1.18142578 1.03867188 -1.18142578 1.03867188 -2.38671875 1.078125 C-12.4618021 1.60274472 -21.23878654 4.06574848 -30.5625 7.8125 C-34.02038007 9.00704039 -34.73840601 9.04913417 -38 8 C-33.59671536 5.01712976 -29.05549914 3.48494859 -24 2 C-23.32195312 1.79117188 -22.64390625 1.58234375 -21.9453125 1.3671875 C-14.7397446 -0.56336088 -7.39711308 -0.17542561 0 0 Z " fill="#BFDA8B" transform="translate(314,216)"/>
<path d="M0 0 C0.33 0 0.66 0 1 0 C1 6.6 1 13.2 1 20 C0.34 20 -0.32 20 -1 20 C-1.99 24.62 -2.98 29.24 -4 34 C-4.33 34 -4.66 34 -5 34 C-5.26121664 26.78751836 -4.56337105 21.04637212 -1.9375 14.25 C-0.58605088 9.56497637 -0.32799394 4.85085771 0 0 Z " fill="#97D196" transform="translate(266,170)"/>
<path d="M0 0 C3.96 0 7.92 0 12 0 C12 2.97 12 5.94 12 9 C11.01 8.67 10.02 8.34 9 8 C9 6.02 9 4.04 9 2 C7.35 2.33 5.7 2.66 4 3 C3.67 4.98 3.34 6.96 3 9 C2.01 9 1.02 9 0 9 C0 6.03 0 3.06 0 0 Z " fill="#DDFBEC" transform="translate(109,334)"/>
<path d="M0 0 C1 1 1 1 1.11352539 3.50024414 C1.10828857 4.58426514 1.10305176 5.66828613 1.09765625 6.78515625 C1.09443359 7.95498047 1.09121094 9.12480469 1.08789062 10.33007812 C1.07951172 11.56177734 1.07113281 12.79347656 1.0625 14.0625 C1.05798828 15.29806641 1.05347656 16.53363281 1.04882812 17.80664062 C1.03699608 20.87114117 1.02051173 23.93554721 1 27 C0.67 27 0.34 27 0 27 C-0.495 14.625 -0.495 14.625 -1 2 C-6.94 1.67 -12.88 1.34 -19 1 C-19 0.67 -19 0.34 -19 0 C-16.58492672 -0.39049692 -14.16933288 -0.76277086 -11.75 -1.125 C-10.72712891 -1.29322266 -10.72712891 -1.29322266 -9.68359375 -1.46484375 C-5.82984466 -2.02606935 -3.25335371 -2.30311674 0 0 Z " fill="#FCFEEC" transform="translate(323,213)"/>
<path d="M0 0 C3.63 0 7.26 0 11 0 C11 2.97 11 5.94 11 9 C11.99 9.33 12.98 9.66 14 10 C12.68 10 11.36 10 10 10 C9.5875 9.030625 9.175 8.06125 8.75 7.0625 C7.35100832 3.87739901 7.35100832 3.87739901 4.8125 3.125 C4.214375 3.08375 3.61625 3.0425 3 3 C3 4.32 3 5.64 3 7 C2.34 7 1.68 7 1 7 C0.67 7.66 0.34 8.32 0 9 C0 6.03 0 3.06 0 0 Z " fill="#DFFEED" transform="translate(217,334)"/>
<path d="M0 0 C0.99 0 1.98 0 3 0 C3 6.6 3 13.2 3 20 C2.01 20 1.02 20 0 20 C0 13.4 0 6.8 0 0 Z " fill="#377757" transform="translate(106,323)"/>
<path d="M0 0 C0.33 0 0.66 0 1 0 C1.02909763 3.24998112 1.04683161 6.49992857 1.0625 9.75 C1.07087891 10.67039063 1.07925781 11.59078125 1.08789062 12.5390625 C1.09272461 13.87324219 1.09272461 13.87324219 1.09765625 15.234375 C1.10551147 16.45979004 1.10551147 16.45979004 1.11352539 17.70996094 C1 20 1 20 0 24 C-5.28 24.33 -10.56 24.66 -16 25 C-16 24.34 -16 23.68 -16 23 C-14.515 22.7525 -14.515 22.7525 -13 22.5 C-12.443125 22.4071875 -11.88625 22.314375 -11.3125 22.21875 C-7.88950733 21.8949534 -4.43827327 22 -1 22 C-0.67 14.74 -0.34 7.48 0 0 Z " fill="#C9DE72" transform="translate(320,223)"/>
<path d="M0 0 C0.66 0 1.32 0 2 0 C2.99 4.62 3.98 9.24 5 14 C4.34 14 3.68 14 3 14 C2.67 12.02 2.34 10.04 2 8 C-0.64 8.99 -3.28 9.98 -6 11 C-6 12.65 -6 14.3 -6 16 C-8.00293347 12.99559979 -8.49271626 11.29006055 -9.125 7.8125 C-9.29257813 6.91144531 -9.46015625 6.01039062 -9.6328125 5.08203125 C-9.75398437 4.39496094 -9.87515625 3.70789063 -10 3 C-9.34 3 -8.68 3 -8 3 C-7.67 4.65 -7.34 6.3 -7 8 C-4.36 7.67 -1.72 7.34 1 7 C0.67 4.69 0.34 2.38 0 0 Z " fill="#617E70" transform="translate(223,117)"/>
<path d="M0 0 C1.8125 0.1875 1.8125 0.1875 4 1 C5.625 3.5 5.625 3.5 7 6 C7.66 6.33 8.32 6.66 9 7 C9.33 4.69 9.66 2.38 10 0 C10.66 0 11.32 0 12 0 C12 4.62 12 9.24 12 14 C11.34 14 10.68 14 10 14 C8.20849615 11.88837497 6.53029747 9.77651833 4.875 7.5625 C4.40707031 6.95083984 3.93914062 6.33917969 3.45703125 5.70898438 C0 1.14832362 0 1.14832362 0 0 Z " fill="#C2ECD6" transform="translate(291,323)"/>
<path d="M0 0 C1.24652344 0.01675781 2.49304688 0.03351563 3.77734375 0.05078125 C5.02644531 0.05464844 6.27554687 0.05851562 7.5625 0.0625 C10.71484375 0.36328125 10.71484375 0.36328125 12.71484375 2.36328125 C12.33984375 4.48828125 12.33984375 4.48828125 11.71484375 6.36328125 C9.07484375 6.36328125 6.43484375 6.36328125 3.71484375 6.36328125 C3.71484375 6.03328125 3.71484375 5.70328125 3.71484375 5.36328125 C5.69484375 5.36328125 7.67484375 5.36328125 9.71484375 5.36328125 C9.71484375 4.70328125 9.71484375 4.04328125 9.71484375 3.36328125 C4.43484375 3.36328125 -0.84515625 3.36328125 -6.28515625 3.36328125 C-3.28515625 0.36328125 -3.28515625 0.36328125 0 0 Z " fill="#D6F2E4" transform="translate(386.28515625,319.63671875)"/>
<path d="M0 0 C1.32 0.33 2.64 0.66 4 1 C1.46080994 2.29673602 -1.08114238 3.58747837 -3.625 4.875 C-4.33785156 5.23980469 -5.05070312 5.60460937 -5.78515625 5.98046875 C-16.27327806 11.27264031 -16.27327806 11.27264031 -20.375 10.625 C-20.91125 10.41875 -21.4475 10.2125 -22 10 C-21.34 10 -20.68 10 -20 10 C-20 9.34 -20 8.68 -20 8 C-19.26394531 7.81824219 -18.52789062 7.63648438 -17.76953125 7.44921875 C-12.66859785 6.13523987 -8.47055357 4.84489772 -4 2 C-2.68 2 -1.36 2 0 2 C0 1.34 0 0.68 0 0 Z " fill="#B0D57B" transform="translate(228,244)"/>
<path d="M0 0 C2.97 0 5.94 0 9 0 C9 0.33 9 0.66 9 1 C6.69 1 4.38 1 2 1 C2 2.65 2 4.3 2 6 C4.31 6 6.62 6 9 6 C9 6.66 9 7.32 9 8 C6.69 8 4.38 8 2 8 C2 9.65 2 11.3 2 13 C4.64 13 7.28 13 10 13 C10 13.33 10 13.66 10 14 C6.7 14 3.4 14 0 14 C0 9.38 0 4.76 0 0 Z " fill="#59806D" transform="translate(240,115)"/>
<path d="M0 0 C0.33 0 0.66 0 1 0 C1.0825 1.093125 1.165 2.18625 1.25 3.3125 C1.6420196 6.95315985 1.6420196 6.95315985 3.71875 8.75 C6.56596173 10.31011602 8.06790748 10.14806602 11.25 9.6875 C12.14203125 9.56761719 13.0340625 9.44773437 13.953125 9.32421875 C14.62859375 9.21722656 15.3040625 9.11023438 16 9 C15.67 9.99 15.34 10.98 15 12 C11.28722262 13.23759246 7.85812154 13.55653215 4 13 C0.55687286 10.8755173 -0.71617547 9.85147359 -2 6 C-1.34 6 -0.68 6 0 6 C0 4.02 0 2.04 0 0 Z " fill="#41785B" transform="translate(240,330)"/>
<path d="M0 0 C-0.825 0.474375 -1.65 0.94875 -2.5 1.4375 C-5.26495427 4.27157812 -5.38194013 4.75279527 -5.4375 8.5 C-5.34015431 11.84411091 -4.64713314 14.08940329 -3 17 C-4.32 17 -5.64 17 -7 17 C-9.24468319 11.85043267 -9.4629885 7.37832462 -8 2 C-5.39047917 -1.05943822 -3.71795738 -1.46062611 0 0 Z " fill="#E5FAF0" transform="translate(244,324)"/>
<path d="M0 0 C0 0.33 0 0.66 0 1 C-0.68964844 1.06058594 -1.37929688 1.12117187 -2.08984375 1.18359375 C-4.04992411 1.35836086 -6.00954364 1.53834947 -7.96875 1.72265625 C-9.84220937 1.89406813 -11.71716054 2.05076287 -13.59375 2.18359375 C-18.16949046 2.4539675 -18.16949046 2.4539675 -22.0625 4.625 C-24.48314724 6.34287869 -25.36796487 6.05467027 -28.25 5.6875 C-30.10625 5.3471875 -30.10625 5.3471875 -32 5 C-32 4.67 -32 4.34 -32 4 C-21.18573564 -0.34900398 -11.48668416 -0.43666381 0 0 Z " fill="#BDDD6C" transform="translate(320,217)"/>
<path d="M0 0 C0.6875 2.3125 0.6875 2.3125 1 5 C-0.4375 6.8125 -0.4375 6.8125 -2 8 C-3.9375 7.375 -3.9375 7.375 -6 6 C-6.75 2.875 -6.75 2.875 -7 0 C-3.86650268 -1.04449911 -3.01031744 -0.93423645 0 0 Z " fill="#DFF5EA" transform="translate(377,201)"/>
<path d="M0 0 C0.66 0 1.32 0 2 0 C2.88021369 6.71162938 3.11381955 13.23405981 3 20 C2.01 20 1.02 20 0 20 C0 13.4 0 6.8 0 0 Z " fill="#42785B" transform="translate(214,323)"/>
<path d="M0 0 C0.99 0.66 1.98 1.32 3 2 C3 2.66 3 3.32 3 4 C3.66 4 4.32 4 5 4 C4.67 4.66 4.34 5.32 4 6 C3.01 5.34 2.02 4.68 1 4 C-3.97617569 3.27465914 -7.84319745 3.25964637 -12.125 6 C-12.74375 6.66 -13.3625 7.32 -14 8 C-14 6.35 -14 4.7 -14 3 C-8.98428297 -0.00943022 -5.69817438 -0.46706347 0 0 Z " fill="#DCF6EA" transform="translate(275,320)"/>
<path d="M0 0 C0.66 0.33 1.32 0.66 2 1 C1.34 1.66 0.68 2.32 0 3 C-0.64767793 5.57061311 -0.64767793 5.57061311 -1 8 C1.71224618 6.38731308 4.37352812 4.75098126 7 3 C9.1875 3.375 9.1875 3.375 11 4 C11.2295711 7.36704285 11.33943529 9.41370268 9.625 12.375 C9.08875 12.91125 8.5525 13.4475 8 14 C7.34 14 6.68 14 6 14 C6 13.34 6 12.68 6 12 C6.495 11.525625 6.99 11.05125 7.5 10.5625 C9.34626591 9.00030058 9.34626591 9.00030058 9 6 C6.13275314 6.57344937 5.1385485 6.8614515 3 9 C0.4375 9.1875 0.4375 9.1875 -2 9 C-3 8 -3 8 -3.25 5.625 C-3 3 -3 3 -1.5 1.1875 C-1.005 0.795625 -0.51 0.40375 0 0 Z " fill="#5E786C" transform="translate(135,178)"/>
<path d="M0 0 C2.49619254 1.87214441 2.96865123 2.7895154 3.4375 5.9375 C3 9 3 9 1.375 11.3125 C-1.47512262 13.33758712 -3.53294243 13.77388755 -7 14 C-7.66 13.67 -8.32 13.34 -9 13 C-9 12.01 -9 11.02 -9 10 C-6.03 10.495 -6.03 10.495 -3 11 C-3 10.34 -3 9.68 -3 9 C-2.01 8.67 -1.02 8.34 0 8 C0 5.36 0 2.72 0 0 Z " fill="#D9F4E6" transform="translate(276,327)"/>
<path d="M0 0 C1.98 0.99 1.98 0.99 4 2 C3.84660156 2.51046875 3.69320313 3.0209375 3.53515625 3.546875 C2.83094597 6.7749338 2.65111796 9.95418001 2.4375 13.25 C2.35371094 14.51328125 2.26992188 15.7765625 2.18359375 17.078125 C2.12300781 18.04234375 2.06242187 19.0065625 2 20 C1.34 20 0.68 20 0 20 C0 13.4 0 6.8 0 0 Z " fill="#236B45" transform="translate(314,323)"/>
<path d="M0 0 C3.0831351 1.19899698 6.06279492 2.47700477 9 4 C7.35 5.65 5.7 7.3 4 9 C2.02 7.68 0.04 6.36 -2 5 C-1.125 1.125 -1.125 1.125 0 0 Z " fill="#E6F6ED" transform="translate(328,141)"/>
<path d="M0 0 C0.66 0 1.32 0 2 0 C2.78688445 2.77723925 3.11949924 5.22610077 3.09765625 8.109375 C3.09282227 9.24052734 3.09282227 9.24052734 3.08789062 10.39453125 C3.07951172 11.17183594 3.07113281 11.94914062 3.0625 12.75 C3.05798828 13.54277344 3.05347656 14.33554687 3.04882812 15.15234375 C3.03708565 17.10159508 3.01915146 19.05080738 3 21 C1.68 21.33 0.36 21.66 -1 22 C-1.33 21.34 -1.66 20.68 -2 20 C-1.34 20 -0.68 20 0 20 C0 13.4 0 6.8 0 0 Z " fill="#C6E9D6" transform="translate(305,323)"/>
<path d="M0 0 C2.97903734 2.97903734 4 5.80285329 4 10 C1.36 10 -1.28 10 -4 10 C-3.52449439 8.51965236 -3.04448784 7.04074979 -2.5625 5.5625 C-2.29566406 4.73878906 -2.02882812 3.91507812 -1.75390625 3.06640625 C-1 1 -1 1 0 0 Z " fill="#C6EFD8" transform="translate(160,326)"/>
<path d="M0 0 C-0.99 0.33 -1.98 0.66 -3 1 C-3.33 1.66 -3.66 2.32 -4 3 C-6.93704456 5.0095568 -8.39222485 6 -12 6 C-12.33 6.99 -12.66 7.98 -13 9 C-12.52213868 2.66833751 -12.52213868 2.66833751 -10.4375 0 C-6.72435451 -1.52334174 -3.91787058 -0.71827627 0 0 Z " fill="#D2F0E0" transform="translate(276,326)"/>
<path d="M0 0 C0 3.51042757 -0.89034673 5.74314749 -2.1875 9 C-2.59355469 10.051875 -2.99960938 11.10375 -3.41796875 12.1875 C-5.20904315 15.37163226 -6.75313792 16.42840961 -10 18 C-8.13603482 11.56084757 -5.71771541 3.81181027 0 0 Z " fill="#98D279" transform="translate(250,248)"/>
<path d="M0 0 C0.85078125 0.00322266 1.7015625 0.00644531 2.578125 0.00976562 C3.46757812 0.01814453 4.35703125 0.02652344 5.2734375 0.03515625 C6.170625 0.03966797 7.0678125 0.04417969 7.9921875 0.04882812 C10.21100398 0.06063034 12.42968768 0.0770947 14.6484375 0.09765625 C14.6484375 0.42765625 14.6484375 0.75765625 14.6484375 1.09765625 C8.49341468 2.90711898 3.04306731 3.35035239 -3.3515625 3.22265625 C-4.22167969 3.21363281 -5.09179688 3.20460938 -5.98828125 3.1953125 C-8.1094967 3.17200244 -10.23056812 3.13614204 -12.3515625 3.09765625 C-12.6815625 2.43765625 -13.0115625 1.77765625 -13.3515625 1.09765625 C-12.2378125 1.11828125 -11.1240625 1.13890625 -9.9765625 1.16015625 C-6.3392536 1.09744403 -3.65970954 -0.02439806 0 0 Z " fill="#C3DC7D" transform="translate(193.3515625,254.90234375)"/>
<path d="M0 0 C0.99 0.33 1.98 0.66 3 1 C2.67 2.32 2.34 3.64 2 5 C0.906875 4.9175 -0.18625 4.835 -1.3125 4.75 C-4.99065827 4.59332344 -4.99065827 4.59332344 -6.8125 6.8125 C-7.4003125 7.8953125 -7.4003125 7.8953125 -8 9 C-8.66 9.99 -9.32 10.98 -10 12 C-10.625 9.1875 -10.625 9.1875 -11 6 C-9 3 -9 3 -6.8359375 2.48828125 C-6.02382813 2.43027344 -5.21171875 2.37226563 -4.375 2.3125 C-3.55773437 2.24675781 -2.74046875 2.18101562 -1.8984375 2.11328125 C-1.27195312 2.07589844 -0.64546875 2.03851563 0 2 C0 1.34 0 0.68 0 0 Z " fill="#E2F6EF" transform="translate(349,154)"/>
<path d="M0 0 C0.66 0 1.32 0 2 0 C2 6.6 2 13.2 2 20 C0.68 19.34 -0.64 18.68 -2 18 C-2 17.34 -2 16.68 -2 16 C-1.34 16 -0.68 16 0 16 C0 10.72 0 5.44 0 0 Z " fill="#246A44" transform="translate(303,323)"/>
<path d="M0 0 C0.33 0 0.66 0 1 0 C1 6.6 1 13.2 1 20 C1.66 20.33 2.32 20.66 3 21 C1.68 21 0.36 21 -1 21 C-2.39972111 14.31244358 -1.88043601 7.75000941 -1 1 C-0.67 0.67 -0.34 0.34 0 0 Z " fill="#BDE1CD" transform="translate(313,323)"/>
<path d="M0 0 C0.66 0.33 1.32 0.66 2 1 C1.67 2.32 1.34 3.64 1 5 C0.34 5 -0.32 5 -1 5 C-1.020625 5.721875 -1.04125 6.44375 -1.0625 7.1875 C-2.44012505 11.32037516 -5.39356619 12.78717508 -9 15 C-9.66 14.34 -10.32 13.68 -11 13 C-10.31164062 12.34644531 -10.31164062 12.34644531 -9.609375 11.6796875 C-5.83645414 8.0177349 -2.7376848 4.48980308 0 0 Z " fill="#74D365" transform="translate(261,192)"/>
<path d="M0 0 C2.31 0 4.62 0 7 0 C7 5.94 7 11.88 7 18 C7.99 18.33 8.98 18.66 10 19 C8.35 19 6.7 19 5 19 C5 13.39 5 7.78 5 2 C3.35 1.67 1.7 1.34 0 1 C0 0.67 0 0.34 0 0 Z " fill="#E2FDF0" transform="translate(192,325)"/>
<path d="M0 0 C2.875 0.25 2.875 0.25 6 1 C7.375 3.0625 7.375 3.0625 8 5 C6.73392393 5.53229326 5.46189588 6.05044544 4.1875 6.5625 C3.47980469 6.85253906 2.77210938 7.14257812 2.04296875 7.44140625 C0 8 0 8 -3 7 C-2.505 6.030625 -2.01 5.06125 -1.5 4.0625 C0.07331124 1.41867592 0.07331124 1.41867592 0 0 Z " fill="#EAF8F1" transform="translate(369,193)"/>
<path d="M0 0 C1.485 0.99 1.485 0.99 3 2 C5.74518321 2.24187651 5.74518321 2.24187651 8.6875 2.125 C9.68136719 2.10695313 10.67523438 2.08890625 11.69921875 2.0703125 C12.45847656 2.04710937 13.21773438 2.02390625 14 2 C13 5 13 5 11 6 C3.53333333 6.35555556 3.53333333 6.35555556 0 4 C0 2.68 0 1.36 0 0 Z " fill="#41785E" transform="translate(362,337)"/>
<path d="M0 0 C2.95929119 2.75520215 5.03681826 5.46627288 7 9 C5.37419034 8.88601335 3.74932843 8.75844341 2.125 8.625 C1.22007812 8.55539063 0.31515625 8.48578125 -0.6171875 8.4140625 C-3 8 -3 8 -5 6 C-4.01 6 -3.02 6 -2 6 C-1.34 4.02 -0.68 2.04 0 0 Z " fill="#DEFBEF" transform="translate(162,146)"/>
<path d="M0 0 C0.93423645 3.01031744 1.04449911 3.86650268 0 7 C-0.99 7.33 -1.98 7.66 -3 8 C-3.33 8.66 -3.66 9.32 -4 10 C-6.375 10.75 -6.375 10.75 -9 11 C-9.99 10.34 -10.98 9.68 -12 9 C-11.34 8.01 -10.68 7.02 -10 6 C-7 5.875 -7 5.875 -4 6 C-1.2160817 4.60804085 -1.02101003 2.84424221 0 0 Z " fill="#E7F7EF" transform="translate(380,203)"/>
<path d="M0 0 C3.03852705 1.40976705 5.5939595 3.08870228 8.25 5.125 C8.95640625 5.66382813 9.6628125 6.20265625 10.390625 6.7578125 C10.92171875 7.16773438 11.4528125 7.57765625 12 8 C11.67 8.99 11.34 9.98 11 11 C8.03 10.505 8.03 10.505 5 10 C5.33 8.35 5.66 6.7 6 5 C5.38125 4.731875 4.7625 4.46375 4.125 4.1875 C2 3 2 3 0 0 Z " fill="#9DB1A9" transform="translate(144,165)"/>
<path d="M0 0 C0.66 0 1.32 0 2 0 C5 5.625 5 5.625 5 9 C4.01 8.67 3.02 8.34 2 8 C1.67 6.68 1.34 5.36 1 4 C-2.63 3.67 -6.26 3.34 -10 3 C-9.67 2.34 -9.34 1.68 -9 1 C-6.03 1.33 -3.06 1.66 0 2 C0 1.34 0 0.68 0 0 Z " fill="#326B4B" transform="translate(165,334)"/>
<path d="M0 0 C1.6415049 3.2830098 0.51888624 6.42545033 0 10 C3.3 10.66 6.6 11.32 10 12 C7 14 7 14 4 13.8125 C-0.49282297 12.59569378 -0.49282297 12.59569378 -2 10 C-2.36162763 7.19882087 -2.22710458 4.86151774 -2 2 C-1.34 1.34 -0.68 0.68 0 0 Z " fill="#CDF2E0" transform="translate(243,327)"/>
<path d="M0 0 C-2.55051685 3.82577527 -4.71764827 4.47577311 -9 6 C-11.9375 6.1875 -11.9375 6.1875 -14 6 C-10.31063898 1.88494347 -5.74338985 -2.42989571 0 0 Z " fill="#B0D781" transform="translate(278,226)"/>
<path d="M0 0 C0 0.66 0 1.32 0 2 C1.2065625 1.7215625 1.2065625 1.7215625 2.4375 1.4375 C3.7059375 1.2209375 3.7059375 1.2209375 5 1 C6 2 6 2 6.1875 4.375 C6 7 6 7 4 10 C3.34 9.67 2.68 9.34 2 9 C2.99 7.02 3.98 5.04 5 3 C4.319375 3.165 3.63875 3.33 2.9375 3.5 C-0.4164822 4.07089059 -3.60389805 4.06659023 -7 4 C-7 3.34 -7 2.68 -7 2 C-4.35261084 0.5393715 -3.10551666 0 0 0 Z " fill="#E6F7EF" transform="translate(362,176)"/>
<path d="M0 0 C1.18771723 3.42943519 0.80226223 5.37784675 -0.4375 8.75 C-0.86869141 9.94882813 -0.86869141 9.94882813 -1.30859375 11.171875 C-1.53675781 11.77515625 -1.76492188 12.3784375 -2 13 C-0.35 12.67 1.3 12.34 3 12 C3.66 13.32 4.32 14.64 5 16 C2.36 15.67 -0.28 15.34 -3 15 C-4.2288865 11.48538462 -3.75329849 9.31643613 -2.625 5.8125 C-2.34914063 4.93207031 -2.07328125 4.05164063 -1.7890625 3.14453125 C-1 1 -1 1 0 0 Z " fill="#70897F" transform="translate(288,120)"/>
<path d="M0 0 C0.33 0 0.66 0 1 0 C1 1.98 1 3.96 1 6 C4.96 6 8.92 6 13 6 C13 6.66 13 7.32 13 8 C8.38 8 3.76 8 -1 8 C-1 2 -1 2 0 0 Z " fill="#2D6448" transform="translate(340,335)"/>
<path d="M0 0 C3.63 0 7.26 0 11 0 C11 0.33 11 0.66 11 1 C8.03 1 5.06 1 2 1 C2 2.32 2 3.64 2 5 C4.31 5 6.62 5 9 5 C9.33 5.66 9.66 6.32 10 7 C6.7 7 3.4 7 0 7 C0 4.69 0 2.38 0 0 Z " fill="#B7E1CD" transform="translate(342,325)"/>
<path d="M0 0 C3.63 0 7.26 0 11 0 C10.67 1.32 10.34 2.64 10 4 C7.36 4 4.72 4 2 4 C1.34 2.68 0.68 1.36 0 0 Z " fill="#F0FEF7" transform="translate(135,326)"/>
<path d="M0 0 C1.70884005 1.62339805 3.37446717 3.29319053 5 5 C5 5.66 5 6.32 5 7 C3.02 7.33 1.04 7.66 -1 8 C-1.66 6.35 -2.32 4.7 -3 3 C-2.01 2.01 -1.02 1.02 0 0 Z " fill="#F1FAF6" transform="translate(339,167)"/>
<path d="M0 0 C0.66 0 1.32 0 2 0 C1.8125 1.875 1.8125 1.875 1 4 C-3.17655714 6.53124675 -7.27433194 6.16019214 -12 6 C-12.66 4.68 -13.32 3.36 -14 2 C-13.01 2.33 -12.02 2.66 -11 3 C-5.71375317 3.62466056 -5.71375317 3.62466056 -1.125 1.5 C-0.75375 1.005 -0.3825 0.51 0 0 Z " fill="#DBF8EB" transform="translate(376,339)"/>
<path d="M0 0 C5.28 0 10.56 0 16 0 C16 0.66 16 1.32 16 2 C13.69 2 11.38 2 9 2 C9 2.66 9 3.32 9 4 C8.34 4 7.68 4 7 4 C7 3.34 7 2.68 7 2 C4.69 2 2.38 2 0 2 C0 1.34 0 0.68 0 0 Z " fill="#266745" transform="translate(380,323)"/>
<path d="M0 0 C0 0.66 0 1.32 0 2 C-2.046875 3.40234375 -2.046875 3.40234375 -4.75 4.9375 C-8.00075249 6.79575179 -11.04959258 8.69068578 -14 11 C-14.33 9.68 -14.66 8.36 -15 7 C-13.865625 6.54625 -12.73125 6.0925 -11.5625 5.625 C-7.95278308 4.42904194 -7.95278308 4.42904194 -7 2 C-2.66666667 0 -2.66666667 0 0 0 Z " fill="#80DB6A" transform="translate(263,258)"/>
<path d="M0 0 C0.33 0 0.66 0 1 0 C1 1.65 1 3.3 1 5 C1.66 5.33 2.32 5.66 3 6 C2.34 6 1.68 6 1 6 C1 7.65 1 9.3 1 11 C-0.65 11.66 -2.3 12.32 -4 13 C-4.33 12.01 -4.66 11.02 -5 10 C-4.01 10 -3.02 10 -2 10 C-1.93941406 9.36191406 -1.87882813 8.72382813 -1.81640625 8.06640625 C-1.73261719 7.24011719 -1.64882812 6.41382813 -1.5625 5.5625 C-1.48128906 4.73878906 -1.40007812 3.91507813 -1.31640625 3.06640625 C-1 1 -1 1 0 0 Z " fill="#E9F8F2" transform="translate(131,223)"/>
<path d="M0 0 C3.96 0 7.92 0 12 0 C12 0.99 12 1.98 12 3 C8.04 3 4.08 3 0 3 C0 2.01 0 1.02 0 0 Z " fill="#488165" transform="translate(109,331)"/>
<path d="M0 0 C2.76262543 2.64251128 3.91616328 4.01491857 4.25 7.9375 C4 11 4 11 2.5 12.875 C1.7575 13.431875 1.7575 13.431875 1 14 C0.34 13.34 -0.32 12.68 -1 12 C-0.67 11.67 -0.34 11.34 0 11 C0.07226502 9.14712498 0.0838122 7.29166122 0.0625 5.4375 C0.05347656 4.42558594 0.04445313 3.41367187 0.03515625 2.37109375 C0.02355469 1.58863281 0.01195312 0.80617188 0 0 Z " fill="#397A5C" transform="translate(278,325)"/>
<path d="M0 0 C0.33 0.66 0.66 1.32 1 2 C2.32 1.34 3.64 0.68 5 0 C4.67 2.64 4.34 5.28 4 8 C2.35 8 0.7 8 -1 8 C-0.67 5.36 -0.34 2.72 0 0 Z " fill="#DFF7EE" transform="translate(124,223)"/>
<path d="M0 0 C0.33 0 0.66 0 1 0 C1.69976405 4.61844276 -0.01893515 6.9630936 -2.61328125 10.546875 C-4 12 -4 12 -7 13 C-5.58795406 7.73691968 -3.31008693 4.2437012 0 0 Z " fill="#EBF8F3" transform="translate(336,147)"/>
<path d="M0 0 C5 5 5 5 7 8 C5.68 7.67 4.36 7.34 3 7 C2.34 9.64 1.68 12.28 1 15 C0.67 15 0.34 15 0 15 C0 10.05 0 5.1 0 0 Z " fill="#B4E2C9" transform="translate(316,328)"/>
<path d="M0 0 C-1.00847158 2.67244967 -1.64834922 3.80077339 -4.171875 5.23046875 C-8.76740659 6.93638578 -13.08674306 8.48281506 -18 9 C-15.37310756 6.37310756 -12.29178726 5.00106358 -9 3.375 C-8.35804688 3.05015625 -7.71609375 2.7253125 -7.0546875 2.390625 C-2.25334821 0 -2.25334821 0 0 0 Z " fill="#E4F6C9" transform="translate(234,244)"/>
<path d="M0 0 C2.25 -0.375 2.25 -0.375 5 0 C7.3125 3 7.3125 3 9 6 C8.67 6.66 8.34 7.32 8 8 C7.401875 7.690625 6.80375 7.38125 6.1875 7.0625 C3.91043228 5.89790296 3.91043228 5.89790296 1 5 C0.67 3.35 0.34 1.7 0 0 Z " fill="#E5F7EE" transform="translate(351,182)"/>
<path d="M0 0 C5.57951482 1.33423181 5.57951482 1.33423181 7.5 4.375 C8.0781426 7.41024863 7.68483352 8.47274972 6 11 C5.34 10.67 4.68 10.34 4 10 C4 8.02 4 6.04 4 4 C2.02 4.33 0.04 4.66 -2 5 C-1.34 3.35 -0.68 1.7 0 0 Z " fill="#E4F2EC" transform="translate(141,178)"/>
<path d="M0 0 C3.35595828 0.59927826 5.37801226 1.84622436 8 4 C7.55011719 4.40863281 7.10023438 4.81726563 6.63671875 5.23828125 C4.8834417 7.12546013 3.91517671 8.86807658 2.8125 11.1875 C2.46832031 11.90292969 2.12414062 12.61835938 1.76953125 13.35546875 C1.51558594 13.89816406 1.26164062 14.44085938 1 15 C0.34 15 -0.32 15 -1 15 C-0.71125 14.319375 -0.4225 13.63875 -0.125 12.9375 C1.12597355 9.67106907 2.07447955 6.37153877 3 3 C2.01 2.01 1.02 1.02 0 0 Z " fill="#627F6F" transform="translate(306,127)"/>
<path d="M0 0 C0.33 1.32 0.66 2.64 1 4 C-1.475 3.01 -1.475 3.01 -4 2 C-4.66 3.98 -5.32 5.96 -6 8 C-6.99 8 -7.98 8 -9 8 C-9 6.02 -9 4.04 -9 2 C-2.25 0 -2.25 0 0 0 Z " fill="#D7F0E6" transform="translate(225,125)"/>
<path d="M0 0 C-3.4019487 2.09350689 -6.05272412 2.17942163 -10 2 C-10 2.99 -10 3.98 -10 5 C-14.625 7.125 -14.625 7.125 -18 6 C-16 4 -16 4 -13.375 3.875 C-12.59125 3.91625 -11.8075 3.9575 -11 4 C-11 3.01 -11 2.02 -11 1 C-3.57142857 -1.42857143 -3.57142857 -1.42857143 0 0 Z " fill="#A5D973" transform="translate(282,251)"/>
<path d="M0 0 C0.85276722 2.41707906 1.12087895 3.64003451 0.29296875 6.10546875 C-0.25423828 7.13607422 -0.25423828 7.13607422 -0.8125 8.1875 C-1.16957031 8.88230469 -1.52664062 9.57710937 -1.89453125 10.29296875 C-3 12 -3 12 -5 13 C-5 12.34 -5 11.68 -5 11 C-5.66 10.67 -6.32 10.34 -7 10 C-6.401875 9.278125 -5.80375 8.55625 -5.1875 7.8125 C-3.22577804 5.29028605 -1.58276017 2.7698303 0 0 Z " fill="#E5F9D7" transform="translate(255,218)"/>
<path d="M0 0 C0.99 0 1.98 0 3 0 C4.125 5.75 4.125 5.75 3 8 C1.68 8 0.36 8 -1 8 C-1.125 2.25 -1.125 2.25 0 0 Z " fill="#E8FCF7" transform="translate(118,221)"/>
<path d="M0 0 C1.65 0 3.3 0 5 0 C4.34 0.66 3.68 1.32 3 2 C3 2.99 3 3.98 3 5 C2.67 5.99 2.34 6.98 2 8 C1.34 8 0.68 8 0 8 C-0.33 8.66 -0.66 9.32 -1 10 C-2.46726798 6.18510326 -1.43336419 3.70988378 0 0 Z " fill="#E0F3E9" transform="translate(133,202)"/>
<path d="M0 0 C0.99 0.495 0.99 0.495 2 1 C2 1.66 2 2.32 2 3 C2.99 3.33 3.98 3.66 5 4 C4.34 4 3.68 4 3 4 C2.34 7.96 1.68 11.92 1 16 C0.67 16 0.34 16 0 16 C0 10.72 0 5.44 0 0 Z " fill="#E9FEF1" transform="translate(267,170)"/>
<path d="M0 0 C2.64 0.33 5.28 0.66 8 1 C6.02 1.99 6.02 1.99 4 3 C5.98 5.31 7.96 7.62 10 10 C7 10 7 10 5.17578125 8.3203125 C4.56089844 7.59585938 3.94601563 6.87140625 3.3125 6.125 C2.68988281 5.40570313 2.06726563 4.68640625 1.42578125 3.9453125 C0 2 0 2 0 0 Z " fill="#547A68" transform="translate(155,153)"/>
<path d="M0 0 C4.62 0 9.24 0 14 0 C13.67 0.66 13.34 1.32 13 2 C10.56640625 2.44921875 10.56640625 2.44921875 7.5625 2.6875 C6.57378906 2.77386719 5.58507812 2.86023438 4.56640625 2.94921875 C2 3 2 3 0 2 C0 1.34 0 0.68 0 0 Z " fill="#E4FEF4" transform="translate(339,343)"/>
<path d="M0 0 C2.4375 0.375 2.4375 0.375 5 1 C5.33 1.66 5.66 2.32 6 3 C8.86724686 2.42655063 9.8614515 2.1385485 12 0 C12 1.65 12 3.3 12 5 C9.36 5.33 6.72 5.66 4 6 C3.67 4.35 3.34 2.7 3 1 C2.34 1 1.68 1 1 1 C0.67 1.66 0.34 2.32 0 3 C0 2.01 0 1.02 0 0 Z " fill="#E0F5EB" transform="translate(212,119)"/>
<path d="M0 0 C1.32 0.66 2.64 1.32 4 2 C1.2461474 4.7538526 0.5017951 4.98590463 -3.4765625 5.09765625 C-4.85940867 5.09100795 -6.24223728 5.07908295 -7.625 5.0625 C-8.33140625 5.05798828 -9.0378125 5.05347656 -9.765625 5.04882812 C-11.51045275 5.03703875 -13.255237 5.01910324 -15 5 C-15 4.67 -15 4.34 -15 4 C-10.38 4 -5.76 4 -1 4 C-0.67 2.68 -0.34 1.36 0 0 Z " fill="#E0FAEC" transform="translate(147,339)"/>
<path d="M0 0 C4.62 0 9.24 0 14 0 C14 0.66 14 1.32 14 2 C12.73542969 2.09087891 12.73542969 2.09087891 11.4453125 2.18359375 C10.34960938 2.26738281 9.25390625 2.35117187 8.125 2.4375 C7.03445313 2.51871094 5.94390625 2.59992188 4.8203125 2.68359375 C2.05271029 2.83001703 2.05271029 2.83001703 0 4 C0 2.68 0 1.36 0 0 Z " fill="#2D6549" transform="translate(339,323)"/>
<path d="M0 0 C0.66 0.33 1.32 0.66 2 1 C2 1.66 2 2.32 2 3 C-3.22512279 4.46670113 -7.5814234 5.22577402 -13 5 C-10.82707291 2.82707291 -9.96628992 2.58098417 -7.0625 1.9375 C-4.63370866 1.38818458 -2.37120638 0.79040213 0 0 Z " fill="#EEFBD5" transform="translate(213,253)"/>
<path d="M0 0 C-6.85217391 4.20869565 -6.85217391 4.20869565 -11.4375 3.375 C-14 2 -14 2 -15 0 C-13.25093341 -0.19601608 -11.50068154 -0.38147403 -9.75 -0.5625 C-8.77546875 -0.66691406 -7.8009375 -0.77132812 -6.796875 -0.87890625 C-4.2368648 -0.98974468 -2.41851841 -0.77738092 0 0 Z " fill="#C0DE6E" transform="translate(201,227)"/>
<path d="M0 0 C1.32 0.33 2.64 0.66 4 1 C2.989375 1.66 1.97875 2.32 0.9375 3 C-0.78029008 4.29028703 -0.78029008 4.29028703 -2 6 C-2.24523599 8.94828161 -1.69470673 11.07230735 -1 14 C-1.99 14 -2.98 14 -4 14 C-4 10.7 -4 7.4 -4 4 C-2.68 3.34 -1.36 2.68 0 2 C0 1.34 0 0.68 0 0 Z " fill="#DFF5EB" transform="translate(180,131)"/>
<path d="M0 0 C0.66 0.33 1.32 0.66 2 1 C0.68 5.29 -0.64 9.58 -2 14 C-2.66 13.34 -3.32 12.68 -4 12 C-4 8.20442119 -3.49821059 6.37097383 -2 3 C-1.34 3 -0.68 3 0 3 C0 2.01 0 1.02 0 0 Z " fill="#E4F8EF" transform="translate(286,120)"/>
<path d="M0 0 C1.65 0 3.3 0 5 0 C5.33 1.98 5.66 3.96 6 6 C4.68 5.67 3.36 5.34 2 5 C1.67 6.32 1.34 7.64 1 9 C0.67 6.03 0.34 3.06 0 0 Z " fill="#DCF5EB" transform="translate(372,225)"/>
<path d="M0 0 C3.26008643 3.16952847 6.22237877 6.39937989 9 10 C8.67 10.66 8.34 11.32 8 12 C6.0625 11.3125 6.0625 11.3125 4 10 C3.25 7.375 3.25 7.375 3 5 C2.34 5 1.68 5 1 5 C0.67 3.35 0.34 1.7 0 0 Z " fill="#D4F2E3" transform="translate(294,332)"/>
<path d="M0 0 C1.65 0 3.3 0 5 0 C5 2.97 5 5.94 5 9 C4.01 8.67 3.02 8.34 2 8 C2 5.69 2 3.38 2 1 C1.34 0.67 0.68 0.34 0 0 Z " fill="#D3F7E3" transform="translate(116,334)"/>
<path d="M0 0 C1.17949219 0.10183594 2.35898437 0.20367187 3.57421875 0.30859375 C4.47785156 0.39238281 5.38148438 0.47617188 6.3125 0.5625 C6.3125 0.8925 6.3125 1.2225 6.3125 1.5625 C-1.6075 2.0575 -1.6075 2.0575 -9.6875 2.5625 C-9.6875 1.9025 -9.6875 1.2425 -9.6875 0.5625 C-6.14075997 -0.61974668 -3.71227005 -0.33079634 0 0 Z " fill="#C3DB7A" transform="translate(313.6875,245.4375)"/>
<path d="M0 0 C2.31 0 4.62 0 7 0 C6 2 5 4 4 6 C3.34 6 2.68 6 2 6 C1.34 4.02 0.68 2.04 0 0 Z " fill="#CDF1DF" transform="translate(358,181)"/>
<path d="M0 0 C4.12751449 0.60698743 7.3321148 2.03810791 11 4 C10.34 5.32 9.68 6.64 9 8 C7.49712782 6.85793642 5.99776716 5.71125043 4.5 4.5625 C3.6646875 3.92441406 2.829375 3.28632813 1.96875 2.62890625 C1.3190625 2.09136719 0.669375 1.55382812 0 1 C0 0.67 0 0.34 0 0 Z " fill="#E4F3ED" transform="translate(148,167)"/>
<path d="M0 0 C0.96661363 3.12180401 0.98988909 5.52083795 0.5625 8.75 C0.40974609 9.94882812 0.40974609 9.94882812 0.25390625 11.171875 C0.12822266 12.07679688 0.12822266 12.07679688 0 13 C-1.625 11.5 -1.625 11.5 -3 9 C-2.68421816 5.9883769 -2.20993773 2.20993773 0 0 Z " fill="#E9FEF5" transform="translate(260,325)"/>
<path d="M0 0 C0.33 0 0.66 0 1 0 C1 6.6 1 13.2 1 20 C-0.32 19.67 -1.64 19.34 -3 19 C-2.34 18.34 -1.68 17.68 -1 17 C-0.69324768 14.10032243 -0.48826629 11.28216822 -0.375 8.375 C-0.33632813 7.57320313 -0.29765625 6.77140625 -0.2578125 5.9453125 C-0.16346069 3.96392444 -0.08063785 1.98199355 0 0 Z " fill="#3F785A" transform="translate(330,323)"/>
<path d="M0 0 C-1.125 1.5 -1.125 1.5 -3 3 C-6.1875 3.1875 -6.1875 3.1875 -9 3 C-9 3.66 -9 4.32 -9 5 C-10.32 4.67 -11.64 4.34 -13 4 C-3.92465753 -1.30821918 -3.92465753 -1.30821918 0 0 Z " fill="#A6D773" transform="translate(237,241)"/>
<path d="M0 0 C0.1953125 6.0546875 0.1953125 6.0546875 0 8 C-0.66 8.66 -1.32 9.32 -2 10 C-2.103125 9.360625 -2.20625 8.72125 -2.3125 8.0625 C-2.539375 7.381875 -2.76625 6.70125 -3 6 C-3.99 5.67 -4.98 5.34 -6 5 C-1.125 0 -1.125 0 0 0 Z " fill="#87D95A" transform="translate(258,202)"/>
<path d="M0 0 C2 3 2 3 2 7 C0.02 7 -1.96 7 -4 7 C-1.125 1.125 -1.125 1.125 0 0 Z " fill="#D0F1E2" transform="translate(268,118)"/>
<path d="M0 0 C2.64 0 5.28 0 8 0 C7.34 1.32 6.68 2.64 6 4 C4.02 4 2.04 4 0 4 C0 2.68 0 1.36 0 0 Z " fill="#F1FEF6" transform="translate(344,326)"/>
<path d="M0 0 C-1.2065625 0.7734375 -1.2065625 0.7734375 -2.4375 1.5625 C-5.66447078 4.63205757 -5.74896257 6.64868459 -6 11 C-6.33 11 -6.66 11 -7 11 C-7.58059139 7.98975988 -8.03805049 5.07121804 -8 2 C-5.50379096 -1.14337435 -3.67194353 -1.44254924 0 0 Z " fill="#D1F3E4" transform="translate(244,324)"/>
<path d="M0 0 C1.32 0.33 2.64 0.66 4 1 C1.69 3.64 -0.62 6.28 -3 9 C-3.33 8.01 -3.66 7.02 -4 6 C-2.0625 2.8125 -2.0625 2.8125 0 0 Z " fill="#EBFDDE" transform="translate(252,239)"/>
<path d="M0 0 C0.99 0.33 1.98 0.66 3 1 C2.38125 1.2475 1.7625 1.495 1.125 1.75 C-1.39578467 3.23281451 -1.7852998 4.40863958 -3 7 C-3.99 7.66 -4.98 8.32 -6 9 C-5.67 7.35 -5.34 5.7 -5 4 C-4.01 4 -3.02 4 -2 4 C-2 3.01 -2 2.02 -2 1 C-1.34 0.67 -0.68 0.34 0 0 Z " fill="#EDFDDD" transform="translate(262,230)"/>
<path d="M0 0 C0.66 0 1.32 0 2 0 C1.88590407 1.45922693 1.75834456 2.91740598 1.625 4.375 C1.55539062 5.18710938 1.48578125 5.99921875 1.4140625 6.8359375 C1 9 1 9 -1 11 C-1.33 10.67 -1.66 10.34 -2 10 C-1.29411765 2.58823529 -1.29411765 2.58823529 0 0 Z " fill="#8ED070" transform="translate(260,197)"/>
<path d="M0 0 C7.425 0.99 7.425 0.99 15 2 C12 4 12 4 8 4 C8 3.34 8 2.68 8 2 C6.35 2.66 4.7 3.32 3 4 C2.01 2.68 1.02 1.36 0 0 Z " fill="#DBF6E8" transform="translate(158,155)"/>
<path d="M0 0 C1.65 0 3.3 0 5 0 C4.01 0.495 4.01 0.495 3 1 C3.33 1.66 3.66 2.32 4 3 C6.52733235 3.65555119 6.52733235 3.65555119 9 4 C8.67 4.66 8.34 5.32 8 6 C5.36 5.67 2.72 5.34 0 5 C0 3.35 0 1.7 0 0 Z " fill="#DCF2E7" transform="translate(242,123)"/>
<path d="M0 0 C0.66 0 1.32 0 2 0 C2.33 3.63 2.66 7.26 3 11 C2.01 11 1.02 11 0 11 C0 7.37 0 3.74 0 0 Z " fill="#236944" transform="translate(214,323)"/>
<path d="M0 0 C0.33 0.99 0.66 1.98 1 3 C-1.22592999 6.38011591 -3.21282653 8.51218185 -7 10 C-5.33248852 6.05860922 -2.77289351 3.2107188 0 0 Z " fill="#A4D482" transform="translate(255,240)"/>
<path d="M0 0 C0.66 0 1.32 0 2 0 C1.88541307 1.43836751 1.75790884 2.87570966 1.625 4.3125 C1.55539062 5.11300781 1.48578125 5.91351563 1.4140625 6.73828125 C1 9 1 9 -1 12 C-1.02698189 10.37509046 -1.04638757 8.75005367 -1.0625 7.125 C-1.07410156 6.22007812 -1.08570313 5.31515625 -1.09765625 4.3828125 C-1 2 -1 2 0 0 Z " fill="#EAFDE0" transform="translate(265,190)"/>
<path d="M0 0 C0.2295711 3.36704285 0.33943529 5.41370268 -1.375 8.375 C-1.91125 8.91125 -2.4475 9.4475 -3 10 C-3.66 10 -4.32 10 -5 10 C-5 9.34 -5 8.68 -5 8 C-4.505 7.525625 -4.01 7.05125 -3.5 6.5625 C-1.65373409 5.00030058 -1.65373409 5.00030058 -2 2 C-3.32 1.34 -4.64 0.68 -6 0 C-3.50907189 -1.24546405 -2.58919267 -0.7767578 0 0 Z " fill="#698278" transform="translate(146,182)"/>
<path d="M0 0 C0.66 0 1.32 0 2 0 C2.625 2.375 2.625 2.375 3 5 C2.34 5.66 1.68 6.32 1 7 C0.01 7 -0.98 7 -2 7 C-2.125 4.625 -2.125 4.625 -2 2 C-1.34 1.34 -0.68 0.68 0 0 Z " fill="#E2FAF1" transform="translate(136,179)"/>
<path d="M0 0 C0.66 0.33 1.32 0.66 2 1 C1.125 4.875 1.125 4.875 0 6 C-3.4375 6.25 -3.4375 6.25 -7 6 C-7.66 5.01 -8.32 4.02 -9 3 C-8.01 2.67 -7.02 2.34 -6 2 C-5.67 2.66 -5.34 3.32 -5 4 C-3.68 4 -2.36 4 -1 4 C-0.67 2.68 -0.34 1.36 0 0 Z " fill="#DDF4EA" transform="translate(188,139)"/>
<path d="M0 0 C3.3 0 6.6 0 10 0 C9.67 0.99 9.34 1.98 9 3 C6.03 2.67 3.06 2.34 0 2 C0 1.34 0 0.68 0 0 Z " fill="#DFF4EA" transform="translate(240,129)"/>
<path d="M0 0 C1.62490954 -0.02698189 3.24994633 -0.04638757 4.875 -0.0625 C5.77992188 -0.07410156 6.68484375 -0.08570313 7.6171875 -0.09765625 C10 0 10 0 12 1 C12 1.66 12 2.32 12 3 C11.22914063 2.98839844 10.45828125 2.97679687 9.6640625 2.96484375 C8.66117187 2.95582031 7.65828125 2.94679688 6.625 2.9375 C5.12839844 2.92009766 5.12839844 2.92009766 3.6015625 2.90234375 C1.01567547 2.81993398 1.01567547 2.81993398 -1 4 C-0.67 2.68 -0.34 1.36 0 0 Z " fill="#CEEFDE" transform="translate(363,321)"/>
<path d="M0 0 C0.66 0.66 1.32 1.32 2 2 C0.35 5.63 -1.3 9.26 -3 13 C-4.08644535 8.6542186 -3.90680911 8.05039452 -2.0625 4.25 C-1.68222656 3.45078125 -1.30195313 2.6515625 -0.91015625 1.828125 C-0.60980469 1.22484375 -0.30945313 0.6215625 0 0 Z " fill="#99D17B" transform="translate(258,207)"/>
<path d="M0 0 C2.95183101 2.95183101 3.08663988 5.95511947 4 10 C3.34 10 2.68 10 2 10 C1.67 8.68 1.34 7.36 1 6 C-0.32 5.67 -1.64 5.34 -3 5 C-2.01 4.67 -1.02 4.34 0 4 C0 2.68 0 1.36 0 0 Z " fill="#688978" transform="translate(270,121)"/>
<path d="M0 0 C2.375 -0.125 2.375 -0.125 5 0 C7.5654594 2.5654594 7.54046087 4.47686668 8 8 C8.99 8.33 9.98 8.66 11 9 C9.68 9 8.36 9 7 9 C6.5875 8.071875 6.175 7.14375 5.75 6.1875 C4.06558214 3.11945319 2.91545917 1.80959535 0 0 Z " fill="#EDFCF6" transform="translate(220,335)"/>
<path d="M0 0 C0.66 0 1.32 0 2 0 C2.66 2.97 3.32 5.94 4 9 C3.01 9 2.02 9 1 9 C-0.4783226 6.04335481 -0.06032783 3.25770263 0 0 Z " fill="#316A4C" transform="translate(261,330)"/>
<path d="M0 0 C0.33 0 0.66 0 1 0 C2.25 6.625 2.25 6.625 0 10 C-0.66 10 -1.32 10 -2 10 C-1.125 2.25 -1.125 2.25 0 0 Z " fill="#10822C" transform="translate(238,282)"/>
<path d="M0 0 C0.66 0 1.32 0 2 0 C2.33 3.3 2.66 6.6 3 10 C0 7 0 7 -0.1875 3.3125 C-0.125625 2.219375 -0.06375 1.12625 0 0 Z " fill="#276C4A" transform="translate(359,330)"/>
<path d="M0 0 C3 3 3 3 3.375 6 C3 9 3 9 0 12 C0 8.04 0 4.08 0 0 Z " fill="#C4F1DD" transform="translate(276,327)"/>
<path d="M0 0 C0.99 0.66 1.98 1.32 3 2 C3 2.66 3 3.32 3 4 C3.66 4 4.32 4 5 4 C5 4.66 5 5.32 5 6 C4.01 6.33 3.02 6.66 2 7 C0.68 5.02 -0.64 3.04 -2 1 C-1.34 0.67 -0.68 0.34 0 0 Z " fill="#357954" transform="translate(298,333)"/>
<path d="M0 0 C2.31 0 4.62 0 7 0 C7 3.63 7 7.26 7 11 C6.67 11 6.34 11 6 11 C5.67 8.36 5.34 5.72 5 3 C2.525 2.01 2.525 2.01 0 1 C0 0.67 0 0.34 0 0 Z " fill="#C4F1DB" transform="translate(192,325)"/>
<path d="M0 0 C0.99 0.33 1.98 0.66 3 1 C3 2.32 3 3.64 3 5 C3.99 5.33 4.98 5.66 6 6 C6 7.32 6 8.64 6 10 C5.34 10 4.68 10 4 10 C3.32845067 8.71086513 2.66291141 7.41859796 2 6.125 C1.62875 5.40570313 1.2575 4.68640625 0.875 3.9453125 C0 2 0 2 0 0 Z " fill="#D4F3E5" transform="translate(162,323)"/>
<path d="M0 0 C0.4125 0.515625 0.825 1.03125 1.25 1.5625 C2.89081865 3.25326429 2.89081865 3.25326429 5.0625 2.8125 C7.18712526 2.06529664 7.18712526 2.06529664 9 0 C8.67 1.65 8.34 3.3 8 5 C5.69 5 3.38 5 1 5 C0.67 3.35 0.34 1.7 0 0 Z " fill="#EEFEF7" transform="translate(218,325)"/>
<path d="M0 0 C0.99 0.33 1.98 0.66 3 1 C-0.69172595 4.53790403 -4.09390595 4.59115883 -9 5 C-8.67 4.34 -8.34 3.68 -8 3 C-5.67793475 2.29508733 -3.34406932 1.62787571 -1 1 C-0.67 0.67 -0.34 0.34 0 0 Z " fill="#F6FEE9" transform="translate(223,250)"/>
<path d="M0 0 C1.65 0 3.3 0 5 0 C1.87567603 2.52349243 -1.38060496 4.27256146 -5 6 C-5 4.68 -5 3.36 -5 2 C-3.35 2 -1.7 2 0 2 C0 1.34 0 0.68 0 0 Z " fill="#EFFCDC" transform="translate(271,224)"/>
<path d="M0 0 C0.99 0.33 1.98 0.66 3 1 C3 1.99 3 2.98 3 4 C1.35 4.66 -0.3 5.32 -2 6 C-2 4.35 -2 2.7 -2 1 C-1.34 0.67 -0.68 0.34 0 0 Z " fill="#DBF6EA" transform="translate(381,223)"/>
<path d="M0 0 C1.32 0.33 2.64 0.66 4 1 C4.6875 2.8125 4.6875 2.8125 5 5 C3.5625 6.75 3.5625 6.75 2 8 C1.34 5.36 0.68 2.72 0 0 Z " fill="#D2EEE3" transform="translate(365,203)"/>
<path d="M0 0 C0.33 0 0.66 0 1 0 C1.17835515 4.54805635 0.99785435 7.8794254 -1 12 C-1.33 12 -1.66 12 -2 12 C-2.28571429 3.42857143 -2.28571429 3.42857143 0 0 Z " fill="#147F30" transform="translate(263,180)"/>
<path d="M0 0 C0.99 0.33 1.98 0.66 3 1 C2.67 2.32 2.34 3.64 2 5 C-0.3431213 4.74438677 -2.67843403 4.40729228 -5 4 C-5.33 3.34 -5.66 2.68 -6 2 C-4.02 2 -2.04 2 0 2 C0 1.34 0 0.68 0 0 Z " fill="#EAFCF4" transform="translate(349,154)"/>
<path d="M0 0 C0.66 0.33 1.32 0.66 2 1 C1.34 3.31 0.68 5.62 0 8 C-0.99 7.67 -1.98 7.34 -3 7 C-2.38722388 4.03824877 -1.74627478 2.61941217 0 0 Z " fill="#E4F8EE" transform="translate(308,129)"/>
<path d="M0 0 C2 4 2 4 2 8 C0.02 8.99 0.02 8.99 -2 10 C-1.34 6.7 -0.68 3.4 0 0 Z " fill="#E3F7F0" transform="translate(213,122)"/>
<path d="M0 0 C0.66 0 1.32 0 2 0 C1.7452486 1.31571603 1.47065859 2.62760376 1.1875 3.9375 C1.03667969 4.66839844 0.88585937 5.39929688 0.73046875 6.15234375 C0.48941406 6.76207031 0.24835938 7.37179687 0 8 C-0.99 8.33 -1.98 8.66 -3 9 C-2.01 6.03 -1.02 3.06 0 0 Z " fill="#DFF9D2" transform="translate(236,272)"/>
<path d="M0 0 C0.33 1.32 0.66 2.64 1 4 C-2 6 -2 6 -4.1875 5.625 C-4.785625 5.41875 -5.38375 5.2125 -6 5 C-6 4.34 -6 3.68 -6 3 C-4.02 2.01 -2.04 1.02 0 0 Z " fill="#A2DB5C" transform="translate(279,226)"/>
<path d="M0 0 C0.66 0 1.32 0 2 0 C2.36923077 4.55384615 2.36923077 4.55384615 0.5 6.8125 C0.005 7.204375 -0.49 7.59625 -1 8 C-1.66 7.67 -2.32 7.34 -3 7 C-1.125 2.25 -1.125 2.25 0 0 Z " fill="#8FD565" transform="translate(252,216)"/>
<path d="M0 0 C0.99 1.32 1.98 2.64 3 4 C2.01 4 1.02 4 0 4 C0 5.32 0 6.64 0 8 C-1.65 7.67 -3.3 7.34 -5 7 C-4.01 6.67 -3.02 6.34 -2 6 C-0.77479736 2.99152582 -0.77479736 2.99152582 0 0 Z " fill="#DFF2E8" transform="translate(162,146)"/>
<path d="M0 0 C1.32 0.33 2.64 0.66 4 1 C3.67 1.99 3.34 2.98 3 4 C4.32 4.33 5.64 4.66 7 5 C4.69 5 2.38 5 0 5 C0 3.35 0 1.7 0 0 Z " fill="#E0FCEE" transform="translate(242,116)"/>
<path d="M0 0 C0.598125 0.61875 1.19625 1.2375 1.8125 1.875 C4.00811144 4.13676954 4.00811144 4.13676954 7 6 C4.69 5.67 2.38 5.34 0 5 C-0.5625 3.0625 -0.5625 3.0625 -1 1 C-0.67 0.67 -0.34 0.34 0 0 Z " fill="#DBF7E9" transform="translate(324,338)"/>
<path d="M0 0 C2.97 0.495 2.97 0.495 6 1 C4.68 2.32 3.36 3.64 2 5 C1.34 4.67 0.68 4.34 0 4 C0 2.68 0 1.36 0 0 Z " fill="#10842A" transform="translate(237,209)"/>
<path d="M0 0 C1.98 0 3.96 0 6 0 C5.67 1.65 5.34 3.3 5 5 C3.35 3.35 1.7 1.7 0 0 Z " fill="#D8FBEB" transform="translate(125,203)"/>
<path d="M0 0 C1.65 1.65 3.3 3.3 5 5 C3.68 5.33 2.36 5.66 1 6 C0.34 4.35 -0.32 2.7 -1 1 C-0.67 0.67 -0.34 0.34 0 0 Z " fill="#DFF4E9" transform="translate(357,335)"/>
<path d="M0 0 C1.98 0 3.96 0 6 0 C6.66 1.98 7.32 3.96 8 6 C6.68 5.34 5.36 4.68 4 4 C4 3.01 4 2.02 4 1 C2.68 0.67 1.36 0.34 0 0 Z " fill="#D5F8E8" transform="translate(160,338)"/>
<path d="M0 0 C2.64 0 5.28 0 8 0 C4.71536341 2.18975773 1.79303725 2.99806563 -2 4 C-1.34 2.68 -0.68 1.36 0 0 Z " fill="#EFFCD9" transform="translate(280,219)"/>
<path d="M0 0 C0.99 0.33 1.98 0.66 3 1 C3 3.64 3 6.28 3 9 C0.53721199 6.53721199 0.00228745 4.29323018 -1 1 C-0.67 0.67 -0.34 0.34 0 0 Z " fill="#DAF1E6" transform="translate(269,114)"/>
<path d="M0 0 C1.2065625 0.0309375 1.2065625 0.0309375 2.4375 0.0625 C1.4475 0.7225 0.4575 1.3825 -0.5625 2.0625 C-1.5525 1.7325 -2.5425 1.4025 -3.5625 1.0625 C-2.5625 0.0625 -2.5625 0.0625 0 0 Z M-5.5625 2.0625 C-4.9025 2.0625 -4.2425 2.0625 -3.5625 2.0625 C-3.8925 3.3825 -4.2225 4.7025 -4.5625 6.0625 C-5.2225 5.7325 -5.8825 5.4025 -6.5625 5.0625 C-6.2325 4.0725 -5.9025 3.0825 -5.5625 2.0625 Z " fill="#C5EAD7" transform="translate(368.5625,324.9375)"/>
<path d="M0 0 C-0.33 1.32 -0.66 2.64 -1 4 C-1.33 3.34 -1.66 2.68 -2 2 C-4.31 2 -6.62 2 -9 2 C-5.86501708 0.14223235 -3.62528568 -0.20140476 0 0 Z " fill="#5A786A" transform="translate(367,179)"/>
<path d="M0 0 C0.33 0 0.66 0 1 0 C1.125 2.375 1.125 2.375 1 5 C0.34 5.66 -0.32 6.32 -1 7 C-1.99 6.67 -2.98 6.34 -4 6 C-2.69593116 3.98079663 -1.36176581 1.98075027 0 0 Z " fill="#E0F3E8" transform="translate(336,147)"/>
</svg>
