<?xml version="1.0" standalone="no"?>
<!DOCTYPE svg PUBLIC "-//W3C//DTD SVG 20010904//EN"
 "http://www.w3.org/TR/2001/REC-SVG-20010904/DTD/svg10.dtd">
<svg version="1.0" xmlns="http://www.w3.org/2000/svg"
 width="500.000000pt" height="500.000000pt" viewBox="0 0 500.000000 500.000000"
 preserveAspectRatio="xMidYMid meet">

<g transform="translate(0.000000,500.000000) scale(0.100000,-0.100000)"
fill="#000000" stroke="none">
<path d="M2400 3790 c0 -33 4 -60 8 -60 5 0 7 24 5 54 l-3 55 42 4 43 4 -47 1
-48 2 0 -60z"/>
<path d="M2662 3813 c-28 -41 -66 -111 -49 -90 8 9 27 18 43 18 24 1 25 3 7 6
-13 2 -23 7 -23 10 0 10 34 63 41 63 6 0 21 -44 25 -75 2 -18 23 -60 23 -49 1
15 -38 144 -44 144 -2 0 -12 -12 -23 -27z"/>
<path d="M2246 3793 c4 -25 1 -32 -13 -36 -14 -4 -13 -5 5 -6 24 -1 28 18 11
54 -7 15 -8 13 -3 -12z"/>
<path d="M2146 3743 c20 -76 24 -85 21 -44 -2 29 2 36 23 42 23 8 23 8 -5 6
-26 -2 -30 2 -33 26 -2 15 -7 27 -12 27 -4 0 -2 -26 6 -57z"/>
<path d="M2866 3748 c-9 -32 -19 -64 -22 -73 -4 -8 -1 -15 7 -15 7 0 10 3 6 6
-3 3 3 31 14 62 11 31 18 61 16 67 -2 5 -11 -16 -21 -47z"/>
<path d="M2453 3783 c9 -2 23 -2 30 0 6 3 -1 5 -18 5 -16 0 -22 -2 -12 -5z"/>
<path d="M2261 3723 c-1 -12 4 -25 9 -28 12 -7 12 2 0 30 -8 19 -9 19 -9 -2z"/>
<path d="M3087 3714 l22 -16 -29 -59 c-17 -32 -28 -59 -25 -59 2 0 16 22 30
49 29 59 38 65 65 51 11 -6 20 -8 20 -6 0 3 -24 17 -52 31 -29 14 -43 18 -31
9z"/>
<path d="M2433 3713 c15 -2 37 -2 50 0 12 2 0 4 -28 4 -27 0 -38 -2 -22 -4z"/>
<path d="M1796 3651 c-10 -11 -16 -26 -13 -33 4 -9 6 -7 6 4 1 9 11 24 23 32
12 9 18 16 12 16 -6 0 -19 -9 -28 -19z"/>
<path d="M2885 3650 c11 -5 27 -9 35 -9 9 0 8 4 -5 9 -11 5 -27 9 -35 9 -9 0
-8 -4 5 -9z"/>
<path d="M1890 3615 c0 -6 6 -17 13 -24 10 -10 7 -16 -12 -32 -13 -10 -30 -19
-38 -19 -24 0 -54 20 -63 43 -6 16 -9 18 -9 5 -2 -44 67 -71 107 -41 33 25 36
34 17 58 -8 11 -15 15 -15 10z"/>
<path d="M3237 3551 c-41 -54 -50 -78 -13 -34 l24 27 36 -28 c33 -25 36 -30
23 -45 -19 -21 -29 -41 -23 -41 7 0 86 105 86 114 0 4 -11 -5 -23 -20 l-24
-27 -36 28 c-33 27 -34 30 -20 52 26 40 9 25 -30 -26z"/>
<path d="M1630 3534 c0 -5 16 -25 35 -44 19 -19 35 -37 35 -40 0 -4 -32 -1
-72 7 -39 7 -73 11 -76 8 -6 -6 79 -102 91 -104 5 -1 -8 18 -28 41 -20 24 -31
44 -25 46 7 3 39 -1 72 -8 33 -6 61 -10 63 -8 2 2 -19 28 -46 58 -26 30 -49
50 -49 44z"/>
<path d="M3443 3410 c-26 -11 -46 -45 -40 -68 4 -13 5 -11 6 5 1 23 44 63 68
63 8 0 25 -11 38 -25 14 -13 25 -20 25 -15 0 11 -50 50 -64 49 -6 0 -21 -4
-33 -9z"/>
<path d="M1475 3316 c22 -20 49 -41 60 -47 11 -5 2 6 -20 26 -22 20 -49 41
-60 47 -11 5 -2 -7 20 -26z"/>
<path d="M3416 3306 c3 -8 13 -17 22 -21 13 -5 13 -2 -3 15 -21 24 -26 25 -19
6z"/>
<path d="M2337 3293 c-4 -3 -7 -105 -7 -225 0 -170 3 -218 13 -218 29 0 143
79 195 135 70 76 113 165 120 251 l5 64 -160 0 c-88 0 -163 -3 -166 -7z"/>
<path d="M1334 3195 c-33 -51 19 -91 61 -45 10 11 26 20 37 20 26 0 23 -38 -4
-69 l-23 -26 28 25 c19 17 27 32 25 50 -4 33 -30 37 -68 10 -51 -36 -81 -7
-40 38 12 12 16 22 11 22 -6 0 -18 -11 -27 -25z"/>
<path d="M3653 3197 c0 -22 -35 -68 -49 -63 -8 3 -11 0 -8 -9 3 -7 0 -24 -6
-37 -16 -31 -2 -14 43 48 36 51 45 74 29 74 -5 0 -9 -6 -9 -13z"/>
<path d="M3545 3190 c-26 -7 -27 -8 -6 -9 13 0 30 -9 37 -18 12 -17 13 -16 8
4 -5 18 -1 22 28 26 l33 4 -35 0 c-19 0 -48 -3 -65 -7z"/>
<path d="M3698 2997 c-32 -11 -58 -25 -58 -29 0 -5 8 -4 18 1 9 5 22 10 27 12
6 1 23 8 40 15 16 7 33 10 37 8 5 -3 8 0 8 5 0 14 -5 14 -72 -12z"/>
<path d="M1233 2982 c-9 -6 5 -25 44 -62 31 -30 51 -47 44 -38 -8 11 -11 29
-7 45 6 27 6 27 -7 5 l-13 -22 -29 30 c-25 26 -27 32 -15 40 8 5 11 10 5 10
-5 0 -16 -4 -22 -8z"/>
<path d="M1293 2983 c15 -2 27 -10 27 -16 0 -9 2 -9 8 -1 4 7 18 14 32 17 14
2 -2 4 -35 4 -33 0 -48 -2 -32 -4z"/>
<path d="M3776 2967 c11 -46 -28 -74 -59 -43 -12 12 -16 10 -31 -17 -14 -27
-14 -28 -1 -10 14 19 20 20 41 11 42 -19 81 32 54 72 -8 11 -9 8 -4 -13z"/>
<path d="M1155 2744 c-3 -20 -4 -38 -1 -41 7 -7 84 -22 114 -23 14 0 22 6 22
18 0 13 -2 14 -9 3 -6 -10 -20 -12 -47 -7 -74 13 -75 14 -68 52 3 19 4 34 1
34 -3 0 -8 -16 -12 -36z"/>
<path d="M3753 2769 c-38 -9 -43 -13 -42 -37 2 -24 2 -24 6 -4 2 12 12 23 21
24 9 0 22 2 29 2 6 1 15 5 19 9 4 4 18 7 30 7 16 0 24 -7 27 -25 4 -23 4 -23
3 2 -1 32 -24 38 -93 22z"/>
<path d="M1224 2756 c-3 -8 -4 -23 -2 -33 3 -11 6 -6 9 15 6 34 2 42 -7 18z"/>
<path d="M1292 2740 c0 -14 2 -19 5 -12 2 6 2 18 0 25 -3 6 -5 1 -5 -13z"/>
<path d="M3782 2720 c0 -14 2 -19 5 -12 2 6 2 18 0 25 -3 6 -5 1 -5 -13z"/>
<path d="M3722 2680 c0 -14 2 -19 5 -12 2 6 2 18 0 25 -3 6 -5 1 -5 -13z"/>
<path d="M2570 2366 c-127 -83 -215 -212 -229 -336 l-7 -60 168 0 168 0 0 220
c0 255 5 246 -100 176z"/>
<path d="M1068 1728 c-5 -66 3 -158 13 -158 5 0 9 20 9 45 l0 45 60 0 60 0 0
-45 c0 -25 5 -45 10 -45 6 0 10 40 10 100 0 60 -4 100 -10 100 -5 0 -10 -20
-10 -45 l0 -45 -60 0 -60 0 0 45 c0 57 -18 59 -22 3z"/>
<path d="M1320 1670 l0 -100 70 0 c40 0 70 4 70 10 0 6 -27 10 -60 10 l-60 0
0 35 0 35 50 0 c28 0 50 5 50 10 0 6 -22 10 -50 10 l-50 0 0 35 0 35 60 0 c33
0 60 4 60 10 0 6 -30 10 -70 10 l-70 0 0 -100z"/>
<path d="M1564 1713 c-64 -143 -64 -143 -49 -143 8 0 17 11 21 25 6 23 11 25
65 25 54 0 60 -2 69 -25 9 -23 30 -35 30 -17 0 21 -86 192 -97 192 -7 0 -25
-26 -39 -57z m44 -71 c-22 -2 -42 -1 -45 2 -3 2 5 26 17 53 l22 48 23 -50 22
-50 -39 -3z"/>
<path d="M1760 1670 l0 -100 65 0 c78 0 88 18 13 22 l-53 3 -3 88 c-4 121 -22
111 -22 -13z"/>
<path d="M1920 1760 c0 -5 16 -10 35 -10 l35 0 0 -90 c0 -73 3 -90 15 -90 12
0 15 17 15 90 l0 90 35 0 c19 0 35 5 35 10 0 6 -35 10 -85 10 -50 0 -85 -4
-85 -10z"/>
<path d="M2140 1670 c0 -60 4 -100 10 -100 6 0 10 20 10 45 l0 45 66 0 66 0
-2 -32 c-3 -48 -1 -58 10 -58 6 0 10 40 10 100 0 60 -4 100 -10 100 -5 0 -10
-6 -11 -12 0 -7 -2 -26 -2 -43 -2 -30 -3 -30 -64 -33 l-63 -3 0 46 c0 25 -4
45 -10 45 -6 0 -10 -40 -10 -100z"/>
<path d="M2423 1750 c-60 -36 -51 -146 14 -171 31 -12 90 -6 106 10 17 17 3
21 -30 9 -38 -14 -74 -1 -99 36 -42 64 38 142 108 105 27 -14 38 -1 14 17 -28
20 -75 17 -113 -6z"/>
<path d="M2639 1741 c-48 -49 -38 -125 21 -156 60 -31 120 -11 145 49 18 42 8
81 -27 111 -43 36 -100 34 -139 -4z m125 -12 c32 -25 35 -75 7 -110 -27 -33
-95 -33 -122 0 -27 32 -24 77 6 106 30 31 73 32 109 4z"/>
<path d="M2880 1670 c0 -82 3 -100 15 -100 12 0 15 15 15 76 l0 77 60 -74 c33
-41 65 -75 70 -77 6 -2 10 36 10 97 0 118 -18 138 -22 25 l-3 -76 -60 75 c-33
42 -66 76 -72 76 -10 1 -13 -25 -13 -99z"/>
<path d="M3140 1670 c0 -118 18 -136 22 -23 l3 77 60 -76 c33 -43 66 -77 73
-78 9 0 12 26 12 100 0 82 -3 100 -15 100 -12 0 -15 -15 -15 -76 l0 -77 -61
77 c-33 42 -65 76 -70 76 -5 0 -9 -45 -9 -100z"/>
<path d="M3390 1670 l0 -100 70 0 c84 0 94 18 13 22 -57 3 -58 3 -61 36 l-3
32 55 0 c71 0 74 18 4 22 -52 3 -53 4 -56 36 l-3 32 60 0 c34 0 61 4 61 10 0
6 -30 10 -70 10 l-70 0 0 -100z"/>
<path d="M3619 1741 c-55 -56 -30 -148 46 -167 33 -8 87 6 93 25 4 11 0 12
-14 6 -11 -5 -36 -9 -57 -9 -29 0 -44 6 -58 25 -54 70 24 160 103 118 27 -14
38 -1 14 17 -35 25 -94 18 -127 -15z"/>
<path d="M3800 1760 c0 -5 16 -10 35 -10 l35 0 0 -90 c0 -53 4 -90 10 -90 6 0
10 37 10 90 l0 90 35 0 c19 0 35 5 35 10 0 6 -33 10 -80 10 -47 0 -80 -4 -80
-10z"/>
</g>
</svg>
